<?xml version="1.0" encoding="UTF-8"?>
<svg xmlns="http://www.w3.org/2000/svg" xmlns:xlink="http://www.w3.org/1999/xlink" width="35px" height="25px" viewBox="0 0 35 25" version="1.1">
<g id="surface1">
<rect x="0" y="0" width="35" height="25" style="fill:rgb(13.333333%,61.960784%,27.058824%);fill-opacity:1;stroke:none;"/>
<path style=" stroke:none;fill-rule:evenodd;fill:rgb(97.254902%,89.803922%,3.529412%);fill-opacity:1;" d="M 17.5 22.253906 L 32.203125 12.515625 L 17.410156 2.75 L 2.660156 12.539062 Z M 17.5 22.253906 "/>
<path style=" stroke:none;fill-rule:evenodd;fill:rgb(16.862745%,28.627451%,63.921569%);fill-opacity:1;" d="M 23.90625 12.5 C 23.929688 10.222656 22.75 8.105469 20.816406 6.957031 C 18.878906 5.8125 16.492188 5.8125 14.558594 6.957031 C 12.625 8.105469 11.441406 10.222656 11.464844 12.5 C 11.441406 14.78125 12.625 16.898438 14.558594 18.042969 C 16.492188 19.191406 18.878906 19.191406 20.816406 18.042969 C 22.75 16.898438 23.929688 14.78125 23.90625 12.5 L 17.6875 12.5 Z M 23.90625 12.5 "/>
<path style=" stroke:none;fill-rule:evenodd;fill:rgb(100%,100%,93.72549%);fill-opacity:1;" d="M 15.640625 16.296875 L 15.449219 16.183594 L 15.25 16.285156 L 15.292969 16.058594 L 15.140625 15.894531 L 15.359375 15.867188 L 15.464844 15.664062 L 15.554688 15.875 L 15.773438 15.914062 L 15.609375 16.070312 Z M 15.640625 16.296875 "/>
<path style=" stroke:none;fill-rule:evenodd;fill:rgb(100%,100%,93.72549%);fill-opacity:1;" d="M 19.808594 17.375 L 19.617188 17.261719 L 19.417969 17.363281 L 19.460938 17.136719 L 19.308594 16.96875 L 19.527344 16.945312 L 19.632812 16.742188 L 19.726562 16.953125 L 19.941406 16.992188 L 19.777344 17.148438 Z M 19.808594 17.375 "/>
<path style=" stroke:none;fill-rule:evenodd;fill:rgb(100%,100%,93.72549%);fill-opacity:1;" d="M 18.015625 15.65625 L 17.847656 15.558594 L 17.675781 15.644531 L 17.714844 15.449219 L 17.582031 15.304688 L 17.769531 15.28125 L 17.859375 15.105469 L 17.941406 15.289062 L 18.128906 15.324219 L 17.988281 15.457031 Z M 18.015625 15.65625 "/>
<path style=" stroke:none;fill-rule:evenodd;fill:rgb(100%,100%,93.72549%);fill-opacity:1;" d="M 22.222656 15.035156 L 22.058594 14.941406 L 21.890625 15.023438 L 21.929688 14.832031 L 21.796875 14.691406 L 21.984375 14.671875 L 22.074219 14.496094 L 22.152344 14.675781 L 22.335938 14.710938 L 22.199219 14.84375 Z M 22.222656 15.035156 "/>
<path style=" stroke:none;fill-rule:evenodd;fill:rgb(100%,100%,93.72549%);fill-opacity:1;" d="M 17.9375 13.746094 L 17.746094 13.632812 L 17.546875 13.734375 L 17.589844 13.507812 L 17.433594 13.34375 L 17.65625 13.316406 L 17.757812 13.113281 L 17.851562 13.324219 L 18.070312 13.363281 L 17.90625 13.519531 Z M 17.9375 13.746094 "/>
<path style=" stroke:none;fill-rule:evenodd;fill:rgb(100%,100%,93.72549%);fill-opacity:1;" d="M 12.804688 11.78125 L 12.613281 11.667969 L 12.414062 11.769531 L 12.457031 11.542969 L 12.300781 11.375 L 12.523438 11.351562 L 12.625 11.148438 L 12.71875 11.355469 L 12.9375 11.398438 L 12.773438 11.554688 Z M 12.804688 11.78125 "/>
<path style=" stroke:none;fill-rule:evenodd;fill:rgb(100%,100%,93.72549%);fill-opacity:1;" d="M 13.421875 14.398438 L 13.230469 14.285156 L 13.027344 14.382812 L 13.074219 14.15625 L 12.917969 13.992188 L 13.140625 13.964844 L 13.242188 13.761719 L 13.335938 13.972656 L 13.554688 14.011719 L 13.390625 14.167969 Z M 13.421875 14.398438 "/>
<path style=" stroke:none;fill-rule:evenodd;fill:rgb(100%,100%,93.72549%);fill-opacity:1;" d="M 19.828125 10.816406 L 19.65625 10.71875 L 19.480469 10.808594 L 19.519531 10.605469 L 19.382812 10.460938 L 19.578125 10.4375 L 19.671875 10.257812 L 19.75 10.441406 L 19.945312 10.480469 L 19.800781 10.617188 Z M 19.828125 10.816406 "/>
<path style=" stroke:none;fill-rule:evenodd;fill:rgb(100%,100%,93.72549%);fill-opacity:1;" d="M 19.472656 12.519531 L 19.339844 12.441406 L 19.203125 12.511719 L 19.234375 12.355469 L 19.125 12.238281 L 19.277344 12.21875 L 19.351562 12.078125 L 19.414062 12.226562 L 19.566406 12.253906 L 19.453125 12.359375 Z M 19.472656 12.519531 "/>
<path style=" stroke:none;fill-rule:evenodd;fill:rgb(100%,100%,93.72549%);fill-opacity:1;" d="M 12.519531 14.871094 L 12.390625 14.796875 L 12.257812 14.863281 L 12.285156 14.710938 L 12.183594 14.601562 L 12.332031 14.582031 L 12.398438 14.449219 L 12.460938 14.585938 L 12.605469 14.613281 L 12.496094 14.71875 Z M 12.519531 14.871094 "/>
<path style=" stroke:none;fill-rule:evenodd;fill:rgb(100%,100%,93.72549%);fill-opacity:1;" d="M 22.257812 15.472656 L 22.15625 15.417969 L 22.046875 15.46875 L 22.070312 15.355469 L 21.984375 15.269531 L 22.105469 15.257812 L 22.164062 15.15625 L 22.210938 15.261719 L 22.332031 15.28125 L 22.242188 15.359375 Z M 22.257812 15.472656 "/>
<path style=" stroke:none;fill-rule:evenodd;fill:rgb(100%,100%,93.72549%);fill-opacity:1;" d="M 12.519531 14.871094 L 12.390625 14.796875 L 12.257812 14.863281 L 12.285156 14.710938 L 12.183594 14.601562 L 12.332031 14.582031 L 12.398438 14.449219 L 12.460938 14.585938 L 12.605469 14.613281 L 12.496094 14.71875 Z M 12.519531 14.871094 "/>
<path style=" stroke:none;fill-rule:evenodd;fill:rgb(100%,100%,93.72549%);fill-opacity:1;" d="M 12.519531 14.871094 L 12.390625 14.796875 L 12.257812 14.863281 L 12.285156 14.710938 L 12.183594 14.601562 L 12.332031 14.582031 L 12.398438 14.449219 L 12.460938 14.585938 L 12.605469 14.613281 L 12.496094 14.71875 Z M 12.519531 14.871094 "/>
<path style=" stroke:none;fill-rule:evenodd;fill:rgb(100%,100%,93.72549%);fill-opacity:1;" d="M 14.5625 14.871094 L 14.433594 14.796875 L 14.300781 14.863281 L 14.328125 14.710938 L 14.226562 14.601562 L 14.375 14.582031 L 14.441406 14.449219 L 14.503906 14.585938 L 14.648438 14.613281 L 14.539062 14.71875 Z M 14.5625 14.871094 "/>
<path style=" stroke:none;fill-rule:evenodd;fill:rgb(100%,100%,93.72549%);fill-opacity:1;" d="M 14.308594 15.5625 L 14.179688 15.488281 L 14.046875 15.554688 L 14.074219 15.40625 L 13.972656 15.292969 L 14.121094 15.277344 L 14.1875 15.140625 L 14.25 15.28125 L 14.394531 15.308594 L 14.285156 15.410156 Z M 14.308594 15.5625 "/>
<path style=" stroke:none;fill-rule:evenodd;fill:rgb(100%,100%,93.72549%);fill-opacity:1;" d="M 18.546875 14.300781 L 18.421875 14.226562 L 18.285156 14.292969 L 18.316406 14.140625 L 18.214844 14.03125 L 18.359375 14.011719 L 18.429688 13.878906 L 18.492188 14.019531 L 18.636719 14.046875 L 18.527344 14.148438 Z M 18.546875 14.300781 "/>
<path style=" stroke:none;fill-rule:evenodd;fill:rgb(100%,100%,93.72549%);fill-opacity:1;" d="M 17.304688 14.300781 L 17.175781 14.226562 L 17.042969 14.292969 L 17.070312 14.140625 L 16.96875 14.03125 L 17.117188 14.011719 L 17.183594 13.878906 L 17.246094 14.019531 L 17.390625 14.042969 L 17.285156 14.148438 Z M 17.304688 14.300781 "/>
<path style=" stroke:none;fill-rule:evenodd;fill:rgb(100%,100%,93.72549%);fill-opacity:1;" d="M 13.929688 13.859375 L 13.847656 13.8125 L 13.765625 13.851562 L 13.78125 13.757812 L 13.71875 13.6875 L 13.8125 13.679688 L 13.855469 13.59375 L 13.890625 13.679688 L 13.984375 13.699219 L 13.914062 13.761719 Z M 13.929688 13.859375 "/>
<path style=" stroke:none;fill-rule:evenodd;fill:rgb(100%,100%,93.72549%);fill-opacity:1;" d="M 22.101562 16.023438 L 21.972656 15.945312 L 21.839844 16.015625 L 21.871094 15.863281 L 21.765625 15.753906 L 21.914062 15.734375 L 21.984375 15.597656 L 22.042969 15.738281 L 22.1875 15.765625 L 22.082031 15.871094 Z M 22.101562 16.023438 "/>
<path style=" stroke:none;fill-rule:evenodd;fill:rgb(100%,100%,93.72549%);fill-opacity:1;" d="M 21.066406 16.160156 L 20.957031 16.097656 L 20.847656 16.152344 L 20.871094 16.027344 L 20.789062 15.9375 L 20.910156 15.921875 L 20.964844 15.808594 L 21.019531 15.925781 L 21.136719 15.949219 L 21.046875 16.035156 Z M 21.066406 16.160156 "/>
<path style=" stroke:none;fill-rule:evenodd;fill:rgb(100%,100%,93.72549%);fill-opacity:1;" d="M 21.554688 16.148438 L 21.453125 16.089844 L 21.351562 16.140625 L 21.375 16.027344 L 21.296875 15.941406 L 21.410156 15.925781 L 21.460938 15.820312 L 21.507812 15.929688 L 21.621094 15.949219 L 21.539062 16.03125 Z M 21.554688 16.148438 "/>
<path style=" stroke:none;fill-rule:evenodd;fill:rgb(100%,100%,93.72549%);fill-opacity:1;" d="M 22.957031 14.898438 L 22.863281 14.839844 L 22.761719 14.890625 L 22.785156 14.78125 L 22.707031 14.695312 L 22.816406 14.683594 L 22.871094 14.582031 L 22.914062 14.6875 L 23.023438 14.707031 L 22.941406 14.785156 Z M 22.957031 14.898438 "/>
<path style=" stroke:none;fill-rule:evenodd;fill:rgb(100%,100%,93.72549%);fill-opacity:1;" d="M 21.050781 16.867188 L 20.925781 16.796875 L 20.796875 16.859375 L 20.828125 16.71875 L 20.726562 16.617188 L 20.871094 16.601562 L 20.9375 16.476562 L 20.996094 16.605469 L 21.136719 16.632812 L 21.03125 16.726562 Z M 21.050781 16.867188 "/>
<path style=" stroke:none;fill-rule:evenodd;fill:rgb(100%,100%,93.72549%);fill-opacity:1;" d="M 21.058594 17.4375 L 20.945312 17.367188 L 20.828125 17.429688 L 20.855469 17.289062 L 20.761719 17.1875 L 20.894531 17.171875 L 20.953125 17.046875 L 21.007812 17.175781 L 21.136719 17.199219 L 21.042969 17.296875 Z M 21.058594 17.4375 "/>
<path style=" stroke:none;fill-rule:evenodd;fill:rgb(100%,100%,93.72549%);fill-opacity:1;" d="M 20.117188 16.148438 L 20.023438 16.09375 L 19.925781 16.140625 L 19.945312 16.03125 L 19.871094 15.949219 L 19.980469 15.933594 L 20.03125 15.832031 L 20.078125 15.9375 L 20.183594 15.957031 L 20.101562 16.035156 Z M 20.117188 16.148438 "/>
<path style=" stroke:none;fill-rule:evenodd;fill:rgb(100%,100%,93.72549%);fill-opacity:1;" d="M 19.234375 16.148438 L 19.140625 16.09375 L 19.042969 16.140625 L 19.0625 16.03125 L 18.988281 15.949219 L 19.097656 15.933594 L 19.148438 15.832031 L 19.195312 15.9375 L 19.300781 15.957031 L 19.222656 16.035156 Z M 19.234375 16.148438 "/>
<path style=" stroke:none;fill-rule:evenodd;fill:rgb(100%,100%,93.72549%);fill-opacity:1;" d="M 17.738281 14.8125 L 17.640625 14.753906 L 17.542969 14.804688 L 17.566406 14.691406 L 17.488281 14.609375 L 17.597656 14.597656 L 17.648438 14.496094 L 17.695312 14.601562 L 17.804688 14.621094 L 17.722656 14.699219 Z M 17.738281 14.8125 "/>
<path style=" stroke:none;fill-rule:evenodd;fill:rgb(100%,100%,93.72549%);fill-opacity:1;" d="M 17.902344 17.535156 L 17.824219 17.488281 L 17.738281 17.53125 L 17.757812 17.4375 L 17.695312 17.367188 L 17.785156 17.355469 L 17.828125 17.269531 L 17.867188 17.359375 L 17.960938 17.375 L 17.890625 17.441406 Z M 17.902344 17.535156 "/>
<path style=" stroke:none;fill-rule:evenodd;fill:rgb(100%,100%,93.72549%);fill-opacity:1;" d="M 15.640625 13.128906 L 15.449219 13.015625 L 15.25 13.117188 L 15.292969 12.890625 L 15.140625 12.722656 L 15.359375 12.699219 L 15.464844 12.496094 L 15.554688 12.703125 L 15.773438 12.746094 L 15.609375 12.902344 Z M 15.640625 13.128906 "/>
<path style=" stroke:none;fill-rule:evenodd;fill:rgb(100%,100%,100%);fill-opacity:1;" d="M 23.496094 14.78125 C 23.589844 14.527344 23.714844 14.148438 23.78125 13.796875 C 20.476562 10.835938 16.792969 9.316406 12.136719 9.628906 C 11.96875 9.957031 11.835938 10.296875 11.726562 10.667969 C 17.238281 10.132812 21.28125 12.621094 23.496094 14.78125 Z M 23.496094 14.78125 "/>
<path style=" stroke:none;fill-rule:nonzero;fill:rgb(18.823529%,61.960784%,22.745098%);fill-opacity:1;" d="M 22.011719 13.117188 L 22.128906 13.183594 C 22.113281 13.222656 22.105469 13.261719 22.113281 13.292969 C 22.125 13.328125 22.144531 13.355469 22.179688 13.378906 C 22.214844 13.402344 22.25 13.414062 22.277344 13.410156 C 22.308594 13.410156 22.328125 13.398438 22.34375 13.375 C 22.351562 13.363281 22.355469 13.347656 22.355469 13.332031 C 22.351562 13.316406 22.34375 13.300781 22.332031 13.277344 C 22.320312 13.265625 22.296875 13.234375 22.253906 13.191406 C 22.203125 13.132812 22.175781 13.085938 22.164062 13.042969 C 22.152344 12.988281 22.160156 12.9375 22.191406 12.890625 C 22.207031 12.863281 22.234375 12.839844 22.269531 12.828125 C 22.300781 12.8125 22.339844 12.808594 22.378906 12.816406 C 22.417969 12.824219 22.457031 12.84375 22.5 12.875 C 22.574219 12.921875 22.617188 12.976562 22.628906 13.03125 C 22.644531 13.089844 22.636719 13.144531 22.601562 13.199219 L 22.484375 13.125 C 22.5 13.089844 22.503906 13.0625 22.496094 13.039062 C 22.488281 13.015625 22.46875 12.992188 22.4375 12.96875 C 22.402344 12.945312 22.375 12.933594 22.347656 12.9375 C 22.328125 12.9375 22.3125 12.945312 22.304688 12.960938 C 22.292969 12.972656 22.292969 12.988281 22.296875 13.007812 C 22.304688 13.027344 22.332031 13.066406 22.375 13.117188 C 22.421875 13.167969 22.457031 13.210938 22.472656 13.246094 C 22.488281 13.277344 22.496094 13.3125 22.496094 13.347656 C 22.496094 13.382812 22.480469 13.417969 22.457031 13.453125 C 22.4375 13.488281 22.40625 13.511719 22.367188 13.527344 C 22.332031 13.542969 22.292969 13.550781 22.25 13.539062 C 22.207031 13.53125 22.164062 13.511719 22.113281 13.476562 C 22.042969 13.425781 22 13.371094 21.984375 13.3125 C 21.964844 13.25 21.976562 13.1875 22.011719 13.117188 Z M 22.011719 13.117188 "/>
<path style=" stroke:none;fill-rule:nonzero;fill:rgb(18.823529%,61.960784%,22.745098%);fill-opacity:1;" d="M 21.453125 12.742188 L 21.574219 12.800781 C 21.554688 12.84375 21.550781 12.882812 21.5625 12.914062 C 21.574219 12.945312 21.59375 12.972656 21.628906 12.996094 C 21.667969 13.019531 21.703125 13.03125 21.730469 13.027344 C 21.757812 13.019531 21.78125 13.007812 21.792969 12.988281 C 21.800781 12.972656 21.804688 12.957031 21.800781 12.941406 C 21.800781 12.929688 21.792969 12.910156 21.777344 12.890625 C 21.765625 12.875 21.738281 12.847656 21.699219 12.804688 C 21.644531 12.75 21.613281 12.703125 21.601562 12.664062 C 21.585938 12.609375 21.59375 12.558594 21.621094 12.511719 C 21.640625 12.480469 21.664062 12.457031 21.699219 12.441406 C 21.730469 12.425781 21.765625 12.421875 21.804688 12.425781 C 21.847656 12.433594 21.886719 12.449219 21.933594 12.476562 C 22.003906 12.523438 22.050781 12.574219 22.066406 12.632812 C 22.085938 12.6875 22.078125 12.742188 22.046875 12.800781 L 21.925781 12.730469 C 21.9375 12.695312 21.941406 12.667969 21.933594 12.644531 C 21.925781 12.621094 21.90625 12.597656 21.871094 12.578125 C 21.835938 12.554688 21.804688 12.546875 21.777344 12.546875 C 21.761719 12.550781 21.746094 12.558594 21.738281 12.574219 C 21.730469 12.585938 21.726562 12.601562 21.734375 12.621094 C 21.742188 12.640625 21.769531 12.679688 21.816406 12.726562 C 21.867188 12.777344 21.898438 12.816406 21.917969 12.851562 C 21.933594 12.882812 21.945312 12.917969 21.945312 12.953125 C 21.945312 12.988281 21.933594 13.023438 21.910156 13.0625 C 21.890625 13.09375 21.859375 13.121094 21.824219 13.136719 C 21.789062 13.15625 21.75 13.160156 21.707031 13.15625 C 21.664062 13.148438 21.617188 13.128906 21.570312 13.097656 C 21.496094 13.050781 21.449219 12.996094 21.429688 12.9375 C 21.414062 12.878906 21.417969 12.8125 21.453125 12.742188 Z M 21.453125 12.742188 "/>
<path style=" stroke:none;fill-rule:nonzero;fill:rgb(18.823529%,61.960784%,22.745098%);fill-opacity:1;" d="M 20.757812 12.550781 L 21.113281 11.957031 L 21.546875 12.226562 L 21.484375 12.328125 L 21.171875 12.128906 L 21.09375 12.261719 L 21.386719 12.445312 L 21.324219 12.546875 L 21.03125 12.363281 L 20.9375 12.523438 L 21.261719 12.726562 L 21.203125 12.828125 Z M 20.757812 12.550781 "/>
<path style=" stroke:none;fill-rule:nonzero;fill:rgb(18.823529%,61.960784%,22.745098%);fill-opacity:1;" d="M 19.75 11.707031 L 19.804688 11.601562 L 20.066406 11.742188 L 19.941406 11.988281 C 19.902344 12 19.855469 12.003906 19.796875 11.996094 C 19.738281 11.988281 19.683594 11.972656 19.636719 11.949219 C 19.570312 11.914062 19.523438 11.871094 19.488281 11.820312 C 19.457031 11.765625 19.441406 11.710938 19.441406 11.644531 C 19.445312 11.582031 19.460938 11.523438 19.488281 11.460938 C 19.523438 11.398438 19.566406 11.347656 19.617188 11.3125 C 19.667969 11.273438 19.726562 11.257812 19.789062 11.257812 C 19.839844 11.257812 19.894531 11.273438 19.949219 11.300781 C 20.027344 11.34375 20.078125 11.390625 20.101562 11.445312 C 20.128906 11.5 20.132812 11.558594 20.117188 11.621094 L 19.984375 11.578125 C 19.992188 11.546875 19.988281 11.511719 19.972656 11.484375 C 19.957031 11.453125 19.933594 11.429688 19.898438 11.410156 C 19.84375 11.382812 19.792969 11.375 19.742188 11.394531 C 19.695312 11.414062 19.652344 11.453125 19.617188 11.523438 C 19.582031 11.597656 19.570312 11.660156 19.582031 11.714844 C 19.597656 11.769531 19.628906 11.808594 19.679688 11.835938 C 19.707031 11.847656 19.734375 11.859375 19.765625 11.859375 C 19.796875 11.863281 19.824219 11.863281 19.851562 11.859375 L 19.890625 11.78125 Z M 19.75 11.707031 "/>
<path style=" stroke:none;fill-rule:nonzero;fill:rgb(18.823529%,61.960784%,22.745098%);fill-opacity:1;" d="M 15.347656 10.59375 L 15.449219 9.902344 L 15.652344 9.933594 L 15.707031 10.421875 L 15.894531 9.96875 L 16.097656 10 L 16 10.691406 L 15.871094 10.671875 L 15.949219 10.128906 L 15.738281 10.652344 L 15.609375 10.632812 L 15.554688 10.066406 L 15.476562 10.613281 Z M 15.347656 10.59375 "/>
<path style=" stroke:none;fill-rule:nonzero;fill:rgb(18.823529%,61.960784%,22.745098%);fill-opacity:1;" d="M 14.660156 10.511719 L 14.722656 9.816406 L 15.226562 9.863281 L 15.214844 9.980469 L 14.851562 9.945312 L 14.835938 10.101562 L 15.175781 10.132812 L 15.167969 10.25 L 14.824219 10.21875 L 14.808594 10.40625 L 15.1875 10.445312 L 15.175781 10.5625 Z M 14.660156 10.511719 "/>
<path style=" stroke:none;fill-rule:nonzero;fill:rgb(18.823529%,61.960784%,22.745098%);fill-opacity:1;" d="M 12.382812 10.078125 C 12.386719 10.003906 12.398438 9.945312 12.417969 9.898438 C 12.4375 9.863281 12.457031 9.832031 12.484375 9.804688 C 12.511719 9.777344 12.542969 9.757812 12.574219 9.742188 C 12.617188 9.726562 12.667969 9.71875 12.722656 9.71875 C 12.824219 9.722656 12.902344 9.757812 12.960938 9.824219 C 13.019531 9.886719 13.046875 9.976562 13.042969 10.089844 C 13.039062 10.203125 13.007812 10.292969 12.945312 10.355469 C 12.886719 10.414062 12.804688 10.445312 12.703125 10.441406 C 12.605469 10.4375 12.523438 10.40625 12.464844 10.339844 C 12.410156 10.273438 12.378906 10.1875 12.382812 10.078125 Z M 12.382812 10.078125 "/>
<path style=" stroke:none;fill-rule:nonzero;fill:rgb(96.862745%,100%,100%);fill-opacity:1;" d="M 12.527344 10.074219 C 12.523438 10.15625 12.539062 10.214844 12.574219 10.257812 C 12.609375 10.296875 12.652344 10.320312 12.707031 10.320312 C 12.761719 10.324219 12.808594 10.304688 12.84375 10.265625 C 12.878906 10.226562 12.898438 10.164062 12.902344 10.082031 C 12.90625 10.003906 12.890625 9.945312 12.855469 9.902344 C 12.824219 9.863281 12.777344 9.84375 12.722656 9.839844 C 12.664062 9.839844 12.617188 9.859375 12.582031 9.898438 C 12.546875 9.933594 12.527344 9.996094 12.527344 10.074219 Z M 12.527344 10.074219 "/>
<path style=" stroke:none;fill-rule:nonzero;fill:rgb(18.823529%,61.960784%,22.745098%);fill-opacity:1;" d="M 13.191406 10.4375 L 13.199219 9.738281 L 13.488281 9.742188 C 13.5625 9.742188 13.613281 9.75 13.648438 9.765625 C 13.679688 9.777344 13.707031 9.796875 13.726562 9.832031 C 13.746094 9.863281 13.753906 9.898438 13.753906 9.941406 C 13.753906 9.992188 13.738281 10.035156 13.707031 10.070312 C 13.675781 10.105469 13.632812 10.125 13.574219 10.132812 C 13.601562 10.152344 13.625 10.171875 13.644531 10.191406 C 13.664062 10.214844 13.691406 10.253906 13.722656 10.308594 L 13.804688 10.445312 L 13.640625 10.441406 L 13.542969 10.289062 C 13.507812 10.234375 13.484375 10.199219 13.46875 10.1875 C 13.457031 10.171875 13.445312 10.160156 13.429688 10.15625 C 13.414062 10.152344 13.390625 10.148438 13.359375 10.148438 L 13.332031 10.148438 L 13.328125 10.4375 Z M 13.191406 10.4375 "/>
<path style=" stroke:none;fill-rule:nonzero;fill:rgb(100%,100%,100%);fill-opacity:1;" d="M 13.332031 10.035156 L 13.433594 10.039062 C 13.5 10.039062 13.542969 10.035156 13.558594 10.03125 C 13.574219 10.023438 13.589844 10.015625 13.597656 10 C 13.605469 9.988281 13.613281 9.96875 13.613281 9.949219 C 13.613281 9.925781 13.605469 9.90625 13.59375 9.890625 C 13.582031 9.878906 13.566406 9.867188 13.542969 9.863281 C 13.53125 9.863281 13.5 9.859375 13.441406 9.859375 L 13.335938 9.859375 Z M 13.332031 10.035156 "/>
<path style=" stroke:none;fill-rule:nonzero;fill:rgb(18.823529%,61.960784%,22.745098%);fill-opacity:1;" d="M 13.96875 9.773438 L 14.21875 9.785156 C 14.277344 9.789062 14.320312 9.796875 14.347656 9.804688 C 14.386719 9.820312 14.421875 9.84375 14.449219 9.875 C 14.476562 9.90625 14.496094 9.945312 14.507812 9.992188 C 14.519531 10.039062 14.523438 10.09375 14.523438 10.15625 C 14.519531 10.214844 14.507812 10.265625 14.492188 10.304688 C 14.472656 10.355469 14.449219 10.394531 14.414062 10.425781 C 14.390625 10.445312 14.355469 10.464844 14.316406 10.476562 C 14.285156 10.484375 14.242188 10.484375 14.191406 10.484375 L 13.933594 10.46875 Z M 13.96875 9.773438 "/>
<path style=" stroke:none;fill-rule:nonzero;fill:rgb(100%,100%,100%);fill-opacity:1;" d="M 14.101562 9.898438 L 14.078125 10.359375 L 14.179688 10.363281 C 14.21875 10.367188 14.246094 10.367188 14.261719 10.363281 C 14.285156 10.359375 14.304688 10.347656 14.320312 10.335938 C 14.335938 10.324219 14.347656 10.300781 14.359375 10.273438 C 14.371094 10.242188 14.378906 10.199219 14.378906 10.144531 C 14.382812 10.089844 14.378906 10.046875 14.371094 10.019531 C 14.363281 9.988281 14.351562 9.964844 14.335938 9.949219 C 14.320312 9.933594 14.300781 9.921875 14.273438 9.914062 C 14.257812 9.90625 14.21875 9.902344 14.164062 9.902344 Z M 14.101562 9.898438 "/>
<path style=" stroke:none;fill-rule:nonzero;fill:rgb(18.823529%,61.960784%,22.745098%);fill-opacity:1;" d="M 17.316406 11.019531 L 17.476562 10.339844 L 17.691406 10.394531 C 17.769531 10.414062 17.824219 10.429688 17.847656 10.441406 C 17.882812 10.460938 17.910156 10.492188 17.925781 10.53125 C 17.945312 10.574219 17.945312 10.621094 17.933594 10.675781 C 17.925781 10.714844 17.910156 10.75 17.886719 10.773438 C 17.867188 10.800781 17.839844 10.816406 17.816406 10.828125 C 17.789062 10.835938 17.761719 10.84375 17.738281 10.84375 C 17.703125 10.839844 17.65625 10.832031 17.597656 10.816406 L 17.511719 10.796875 L 17.449219 11.050781 Z M 17.316406 11.019531 "/>
<path style=" stroke:none;fill-rule:nonzero;fill:rgb(100%,100%,100%);fill-opacity:1;" d="M 17.582031 10.488281 L 17.539062 10.679688 L 17.609375 10.699219 C 17.664062 10.710938 17.699219 10.71875 17.71875 10.714844 C 17.738281 10.710938 17.753906 10.703125 17.769531 10.691406 C 17.78125 10.679688 17.792969 10.664062 17.796875 10.640625 C 17.800781 10.617188 17.800781 10.597656 17.789062 10.578125 C 17.777344 10.558594 17.761719 10.542969 17.742188 10.53125 C 17.726562 10.527344 17.695312 10.515625 17.648438 10.503906 Z M 17.582031 10.488281 "/>
<path style=" stroke:none;fill-rule:nonzero;fill:rgb(18.823529%,61.960784%,22.745098%);fill-opacity:1;" d="M 17.949219 11.214844 L 18.175781 10.554688 L 18.449219 10.652344 C 18.515625 10.679688 18.5625 10.703125 18.589844 10.726562 C 18.617188 10.75 18.636719 10.777344 18.644531 10.816406 C 18.652344 10.851562 18.648438 10.890625 18.636719 10.929688 C 18.621094 10.980469 18.589844 11.015625 18.550781 11.035156 C 18.511719 11.058594 18.464844 11.0625 18.402344 11.050781 C 18.425781 11.078125 18.441406 11.105469 18.453125 11.132812 C 18.464844 11.160156 18.476562 11.203125 18.492188 11.265625 L 18.527344 11.421875 L 18.371094 11.367188 L 18.328125 11.1875 C 18.3125 11.125 18.300781 11.085938 18.292969 11.066406 C 18.285156 11.050781 18.273438 11.035156 18.261719 11.027344 C 18.25 11.015625 18.230469 11.003906 18.199219 10.996094 L 18.171875 10.984375 L 18.078125 11.261719 Z M 17.949219 11.214844 "/>
<path style=" stroke:none;fill-rule:nonzero;fill:rgb(100%,100%,100%);fill-opacity:1;" d="M 18.207031 10.878906 L 18.304688 10.914062 C 18.367188 10.9375 18.40625 10.949219 18.425781 10.949219 C 18.441406 10.949219 18.457031 10.945312 18.46875 10.933594 C 18.484375 10.925781 18.492188 10.910156 18.5 10.890625 C 18.507812 10.867188 18.507812 10.847656 18.5 10.832031 C 18.496094 10.8125 18.480469 10.796875 18.460938 10.785156 C 18.453125 10.78125 18.417969 10.769531 18.367188 10.75 L 18.265625 10.714844 Z M 18.207031 10.878906 "/>
<path style=" stroke:none;fill-rule:nonzero;fill:rgb(18.823529%,61.960784%,22.745098%);fill-opacity:1;" d="M 18.75 11.1875 C 18.769531 11.121094 18.796875 11.066406 18.832031 11.027344 C 18.855469 10.996094 18.886719 10.972656 18.917969 10.953125 C 18.953125 10.933594 18.988281 10.925781 19.019531 10.921875 C 19.066406 10.914062 19.117188 10.921875 19.167969 10.941406 C 19.265625 10.96875 19.332031 11.023438 19.371094 11.105469 C 19.410156 11.183594 19.414062 11.277344 19.378906 11.386719 C 19.347656 11.492188 19.292969 11.570312 19.21875 11.609375 C 19.140625 11.652344 19.058594 11.660156 18.960938 11.628906 C 18.863281 11.597656 18.796875 11.542969 18.757812 11.464844 C 18.71875 11.386719 18.71875 11.292969 18.75 11.1875 Z M 18.75 11.1875 "/>
<path style=" stroke:none;fill-rule:nonzero;fill:rgb(100%,100%,100%);fill-opacity:1;" d="M 18.886719 11.226562 C 18.863281 11.300781 18.863281 11.363281 18.886719 11.414062 C 18.90625 11.464844 18.945312 11.496094 18.996094 11.515625 C 19.046875 11.53125 19.097656 11.523438 19.140625 11.496094 C 19.1875 11.46875 19.222656 11.417969 19.246094 11.339844 C 19.269531 11.261719 19.269531 11.199219 19.25 11.152344 C 19.226562 11.105469 19.191406 11.070312 19.136719 11.054688 C 19.082031 11.039062 19.03125 11.042969 18.988281 11.070312 C 18.941406 11.097656 18.910156 11.148438 18.886719 11.226562 Z M 18.886719 11.226562 "/>
<path style=" stroke:none;fill-rule:nonzero;fill:rgb(18.823529%,61.960784%,22.745098%);fill-opacity:1;" d="M 20.082031 12.160156 L 20.394531 11.539062 L 20.648438 11.675781 C 20.714844 11.710938 20.757812 11.738281 20.78125 11.765625 C 20.804688 11.792969 20.820312 11.824219 20.824219 11.863281 C 20.824219 11.902344 20.816406 11.9375 20.800781 11.976562 C 20.777344 12.023438 20.742188 12.050781 20.703125 12.070312 C 20.660156 12.085938 20.609375 12.082031 20.554688 12.0625 C 20.570312 12.09375 20.585938 12.121094 20.589844 12.148438 C 20.597656 12.179688 20.605469 12.222656 20.609375 12.285156 L 20.625 12.445312 L 20.476562 12.371094 L 20.457031 12.1875 C 20.449219 12.125 20.445312 12.082031 20.4375 12.0625 C 20.433594 12.042969 20.425781 12.027344 20.414062 12.019531 C 20.40625 12.007812 20.386719 11.992188 20.355469 11.976562 L 20.332031 11.964844 L 20.203125 12.222656 Z M 20.082031 12.160156 "/>
<path style=" stroke:none;fill-rule:nonzero;fill:rgb(100%,100%,100%);fill-opacity:1;" d="M 20.382812 11.867188 L 20.472656 11.914062 C 20.53125 11.945312 20.570312 11.960938 20.585938 11.964844 C 20.601562 11.96875 20.621094 11.964844 20.632812 11.957031 C 20.648438 11.949219 20.660156 11.933594 20.671875 11.914062 C 20.679688 11.894531 20.683594 11.875 20.679688 11.859375 C 20.675781 11.839844 20.664062 11.824219 20.644531 11.808594 C 20.636719 11.800781 20.605469 11.785156 20.558594 11.757812 L 20.460938 11.707031 Z M 20.382812 11.867188 "/>
<path style=" stroke:none;fill-rule:nonzero;fill:rgb(18.823529%,61.960784%,22.745098%);fill-opacity:1;" d="M 22.605469 13.433594 C 22.644531 13.375 22.6875 13.332031 22.730469 13.300781 C 22.761719 13.28125 22.796875 13.265625 22.835938 13.257812 C 22.875 13.25 22.910156 13.25 22.945312 13.257812 C 22.988281 13.265625 23.035156 13.289062 23.078125 13.320312 C 23.164062 13.375 23.210938 13.449219 23.226562 13.535156 C 23.242188 13.625 23.21875 13.714844 23.15625 13.808594 C 23.09375 13.902344 23.023438 13.957031 22.9375 13.976562 C 22.851562 13.996094 22.769531 13.976562 22.6875 13.917969 C 22.601562 13.859375 22.554688 13.785156 22.539062 13.699219 C 22.523438 13.613281 22.546875 13.523438 22.605469 13.433594 Z M 22.605469 13.433594 "/>
<path style=" stroke:none;fill-rule:nonzero;fill:rgb(100%,100%,100%);fill-opacity:1;" d="M 22.726562 13.511719 C 22.683594 13.574219 22.664062 13.636719 22.671875 13.6875 C 22.679688 13.742188 22.707031 13.785156 22.753906 13.816406 C 22.796875 13.847656 22.847656 13.859375 22.898438 13.84375 C 22.949219 13.832031 22.996094 13.792969 23.039062 13.722656 C 23.085938 13.660156 23.101562 13.597656 23.09375 13.546875 C 23.089844 13.496094 23.0625 13.453125 23.015625 13.417969 C 22.96875 13.386719 22.917969 13.378906 22.867188 13.390625 C 22.816406 13.402344 22.769531 13.441406 22.726562 13.511719 Z M 22.726562 13.511719 "/>
<path style=" stroke:none;fill-rule:nonzero;fill:rgb(18.823529%,61.960784%,22.745098%);fill-opacity:1;" d="M 16.546875 10.734375 L 16.65625 10.246094 L 17.007812 10.328125 L 16.992188 10.410156 L 16.734375 10.351562 L 16.707031 10.460938 L 16.949219 10.515625 L 16.929688 10.597656 L 16.691406 10.542969 L 16.660156 10.675781 L 16.925781 10.738281 L 16.90625 10.820312 Z M 16.546875 10.734375 "/>
</g>
</svg>
