<?xml version="1.0" encoding="UTF-8"?>
<svg xmlns="http://www.w3.org/2000/svg" xmlns:xlink="http://www.w3.org/1999/xlink" width="35px" height="25px" viewBox="0 0 47 25" version="1.1">
<g id="surface1">
<rect x="0" y="0" width="47" height="25" style="fill:rgb(100%,100%,100%);fill-opacity:1;stroke:none;"/>
<path style=" stroke:none;fill-rule:nonzero;fill:rgb(74.901961%,3.921569%,18.823529%);fill-opacity:1;" d="M 0 0 L 47 0 L 47 1.921875 L 0 1.921875 Z M 0 0 "/>
<path style=" stroke:none;fill-rule:nonzero;fill:rgb(74.901961%,3.921569%,18.823529%);fill-opacity:1;" d="M 0 3.847656 L 47 3.847656 L 47 5.769531 L 0 5.769531 Z M 0 3.847656 "/>
<path style=" stroke:none;fill-rule:nonzero;fill:rgb(74.901961%,3.921569%,18.823529%);fill-opacity:1;" d="M 0 7.691406 L 47 7.691406 L 47 9.617188 L 0 9.617188 Z M 0 7.691406 "/>
<path style=" stroke:none;fill-rule:nonzero;fill:rgb(74.901961%,3.921569%,18.823529%);fill-opacity:1;" d="M 0 11.539062 L 47 11.539062 L 47 13.460938 L 0 13.460938 Z M 0 11.539062 "/>
<path style=" stroke:none;fill-rule:nonzero;fill:rgb(74.901961%,3.921569%,18.823529%);fill-opacity:1;" d="M 0 15.382812 L 47 15.382812 L 47 17.308594 L 0 17.308594 Z M 0 15.382812 "/>
<path style=" stroke:none;fill-rule:nonzero;fill:rgb(74.901961%,3.921569%,18.823529%);fill-opacity:1;" d="M 0 19.230469 L 47 19.230469 L 47 21.152344 L 0 21.152344 Z M 0 19.230469 "/>
<path style=" stroke:none;fill-rule:nonzero;fill:rgb(74.901961%,3.921569%,18.823529%);fill-opacity:1;" d="M 0 23.078125 L 47 23.078125 L 47 25 L 0 25 Z M 0 23.078125 "/>
<path style=" stroke:none;fill-rule:nonzero;fill:rgb(0%,15.686275%,40.784314%);fill-opacity:1;" d="M 0 0 L 18.800781 0 L 18.800781 13.460938 L 0 13.460938 Z M 0 0 "/>
<path style=" stroke:none;fill-rule:nonzero;fill:rgb(100%,100%,100%);fill-opacity:1;" d="M 1.808594 1.476562 L 1.160156 1.953125 L 1.40625 1.183594 Z M 1.808594 1.476562 "/>
<path style=" stroke:none;fill-rule:nonzero;fill:rgb(100%,100%,100%);fill-opacity:1;" d="M 1.53125 1.570312 L 0.882812 1.09375 L 1.683594 1.09375 Z M 1.53125 1.570312 "/>
<path style=" stroke:none;fill-rule:nonzero;fill:rgb(100%,100%,100%);fill-opacity:1;" d="M 1.359375 1.332031 L 1.609375 0.5625 L 1.855469 1.332031 Z M 1.359375 1.332031 "/>
<path style=" stroke:none;fill-rule:nonzero;fill:rgb(100%,100%,100%);fill-opacity:1;" d="M 1.53125 1.09375 L 2.332031 1.09375 L 1.683594 1.570312 Z M 1.53125 1.09375 "/>
<path style=" stroke:none;fill-rule:nonzero;fill:rgb(100%,100%,100%);fill-opacity:1;" d="M 1.808594 1.183594 L 2.054688 1.953125 L 1.40625 1.476562 Z M 1.808594 1.183594 "/>
<path style=" stroke:none;fill-rule:nonzero;fill:rgb(100%,100%,100%);fill-opacity:1;" d="M 4.925781 1.476562 L 4.277344 1.953125 L 4.523438 1.183594 Z M 4.925781 1.476562 "/>
<path style=" stroke:none;fill-rule:nonzero;fill:rgb(100%,100%,100%);fill-opacity:1;" d="M 4.648438 1.570312 L 4 1.09375 L 4.800781 1.09375 Z M 4.648438 1.570312 "/>
<path style=" stroke:none;fill-rule:nonzero;fill:rgb(100%,100%,100%);fill-opacity:1;" d="M 4.476562 1.332031 L 4.726562 0.5625 L 4.972656 1.332031 Z M 4.476562 1.332031 "/>
<path style=" stroke:none;fill-rule:nonzero;fill:rgb(100%,100%,100%);fill-opacity:1;" d="M 4.648438 1.09375 L 5.449219 1.09375 L 4.800781 1.570312 Z M 4.648438 1.09375 "/>
<path style=" stroke:none;fill-rule:nonzero;fill:rgb(100%,100%,100%);fill-opacity:1;" d="M 4.925781 1.183594 L 5.171875 1.953125 L 4.523438 1.476562 Z M 4.925781 1.183594 "/>
<path style=" stroke:none;fill-rule:nonzero;fill:rgb(100%,100%,100%);fill-opacity:1;" d="M 8.042969 1.476562 L 7.394531 1.953125 L 7.640625 1.183594 Z M 8.042969 1.476562 "/>
<path style=" stroke:none;fill-rule:nonzero;fill:rgb(100%,100%,100%);fill-opacity:1;" d="M 7.765625 1.570312 L 7.117188 1.09375 L 7.917969 1.09375 Z M 7.765625 1.570312 "/>
<path style=" stroke:none;fill-rule:nonzero;fill:rgb(100%,100%,100%);fill-opacity:1;" d="M 7.59375 1.332031 L 7.839844 0.5625 L 8.089844 1.332031 Z M 7.59375 1.332031 "/>
<path style=" stroke:none;fill-rule:nonzero;fill:rgb(100%,100%,100%);fill-opacity:1;" d="M 7.765625 1.09375 L 8.566406 1.09375 L 7.917969 1.570312 Z M 7.765625 1.09375 "/>
<path style=" stroke:none;fill-rule:nonzero;fill:rgb(100%,100%,100%);fill-opacity:1;" d="M 8.042969 1.183594 L 8.289062 1.953125 L 7.640625 1.476562 Z M 8.042969 1.183594 "/>
<path style=" stroke:none;fill-rule:nonzero;fill:rgb(100%,100%,100%);fill-opacity:1;" d="M 11.160156 1.476562 L 10.511719 1.953125 L 10.757812 1.183594 Z M 11.160156 1.476562 "/>
<path style=" stroke:none;fill-rule:nonzero;fill:rgb(100%,100%,100%);fill-opacity:1;" d="M 10.882812 1.570312 L 10.234375 1.09375 L 11.035156 1.09375 Z M 10.882812 1.570312 "/>
<path style=" stroke:none;fill-rule:nonzero;fill:rgb(100%,100%,100%);fill-opacity:1;" d="M 10.710938 1.332031 L 10.957031 0.5625 L 11.207031 1.332031 Z M 10.710938 1.332031 "/>
<path style=" stroke:none;fill-rule:nonzero;fill:rgb(100%,100%,100%);fill-opacity:1;" d="M 10.882812 1.09375 L 11.683594 1.09375 L 11.035156 1.570312 Z M 10.882812 1.09375 "/>
<path style=" stroke:none;fill-rule:nonzero;fill:rgb(100%,100%,100%);fill-opacity:1;" d="M 11.160156 1.183594 L 11.40625 1.953125 L 10.757812 1.476562 Z M 11.160156 1.183594 "/>
<path style=" stroke:none;fill-rule:nonzero;fill:rgb(100%,100%,100%);fill-opacity:1;" d="M 14.277344 1.476562 L 13.628906 1.953125 L 13.875 1.183594 Z M 14.277344 1.476562 "/>
<path style=" stroke:none;fill-rule:nonzero;fill:rgb(100%,100%,100%);fill-opacity:1;" d="M 14 1.570312 L 13.351562 1.09375 L 14.152344 1.09375 Z M 14 1.570312 "/>
<path style=" stroke:none;fill-rule:nonzero;fill:rgb(100%,100%,100%);fill-opacity:1;" d="M 13.828125 1.332031 L 14.074219 0.5625 L 14.324219 1.332031 Z M 13.828125 1.332031 "/>
<path style=" stroke:none;fill-rule:nonzero;fill:rgb(100%,100%,100%);fill-opacity:1;" d="M 14 1.09375 L 14.800781 1.09375 L 14.152344 1.570312 Z M 14 1.09375 "/>
<path style=" stroke:none;fill-rule:nonzero;fill:rgb(100%,100%,100%);fill-opacity:1;" d="M 14.277344 1.183594 L 14.523438 1.953125 L 13.875 1.476562 Z M 14.277344 1.183594 "/>
<path style=" stroke:none;fill-rule:nonzero;fill:rgb(100%,100%,100%);fill-opacity:1;" d="M 17.390625 1.476562 L 16.746094 1.953125 L 16.992188 1.183594 Z M 17.390625 1.476562 "/>
<path style=" stroke:none;fill-rule:nonzero;fill:rgb(100%,100%,100%);fill-opacity:1;" d="M 17.117188 1.570312 L 16.46875 1.09375 L 17.269531 1.09375 Z M 17.117188 1.570312 "/>
<path style=" stroke:none;fill-rule:nonzero;fill:rgb(100%,100%,100%);fill-opacity:1;" d="M 16.945312 1.332031 L 17.191406 0.5625 L 17.441406 1.332031 Z M 16.945312 1.332031 "/>
<path style=" stroke:none;fill-rule:nonzero;fill:rgb(100%,100%,100%);fill-opacity:1;" d="M 17.117188 1.09375 L 17.917969 1.09375 L 17.269531 1.570312 Z M 17.117188 1.09375 "/>
<path style=" stroke:none;fill-rule:nonzero;fill:rgb(100%,100%,100%);fill-opacity:1;" d="M 17.390625 1.183594 L 17.640625 1.953125 L 16.992188 1.476562 Z M 17.390625 1.183594 "/>
<path style=" stroke:none;fill-rule:nonzero;fill:rgb(100%,100%,100%);fill-opacity:1;" d="M 3.367188 2.828125 L 2.71875 3.304688 L 2.964844 2.535156 Z M 3.367188 2.828125 "/>
<path style=" stroke:none;fill-rule:nonzero;fill:rgb(100%,100%,100%);fill-opacity:1;" d="M 3.089844 2.917969 L 2.441406 2.441406 L 3.242188 2.441406 Z M 3.089844 2.917969 "/>
<path style=" stroke:none;fill-rule:nonzero;fill:rgb(100%,100%,100%);fill-opacity:1;" d="M 2.917969 2.679688 L 3.167969 1.910156 L 3.414062 2.679688 Z M 2.917969 2.679688 "/>
<path style=" stroke:none;fill-rule:nonzero;fill:rgb(100%,100%,100%);fill-opacity:1;" d="M 3.089844 2.441406 L 3.890625 2.441406 L 3.242188 2.917969 Z M 3.089844 2.441406 "/>
<path style=" stroke:none;fill-rule:nonzero;fill:rgb(100%,100%,100%);fill-opacity:1;" d="M 3.367188 2.535156 L 3.613281 3.304688 L 2.964844 2.828125 Z M 3.367188 2.535156 "/>
<path style=" stroke:none;fill-rule:nonzero;fill:rgb(100%,100%,100%);fill-opacity:1;" d="M 6.484375 2.828125 L 5.835938 3.304688 L 6.082031 2.535156 Z M 6.484375 2.828125 "/>
<path style=" stroke:none;fill-rule:nonzero;fill:rgb(100%,100%,100%);fill-opacity:1;" d="M 6.207031 2.917969 L 5.558594 2.441406 L 6.359375 2.441406 Z M 6.207031 2.917969 "/>
<path style=" stroke:none;fill-rule:nonzero;fill:rgb(100%,100%,100%);fill-opacity:1;" d="M 6.035156 2.679688 L 6.28125 1.910156 L 6.53125 2.679688 Z M 6.035156 2.679688 "/>
<path style=" stroke:none;fill-rule:nonzero;fill:rgb(100%,100%,100%);fill-opacity:1;" d="M 6.207031 2.441406 L 7.007812 2.441406 L 6.359375 2.917969 Z M 6.207031 2.441406 "/>
<path style=" stroke:none;fill-rule:nonzero;fill:rgb(100%,100%,100%);fill-opacity:1;" d="M 6.484375 2.535156 L 6.730469 3.304688 L 6.082031 2.828125 Z M 6.484375 2.535156 "/>
<path style=" stroke:none;fill-rule:nonzero;fill:rgb(100%,100%,100%);fill-opacity:1;" d="M 9.601562 2.828125 L 8.953125 3.304688 L 9.199219 2.535156 Z M 9.601562 2.828125 "/>
<path style=" stroke:none;fill-rule:nonzero;fill:rgb(100%,100%,100%);fill-opacity:1;" d="M 9.324219 2.917969 L 8.675781 2.441406 L 9.476562 2.441406 Z M 9.324219 2.917969 "/>
<path style=" stroke:none;fill-rule:nonzero;fill:rgb(100%,100%,100%);fill-opacity:1;" d="M 9.152344 2.679688 L 9.398438 1.910156 L 9.648438 2.679688 Z M 9.152344 2.679688 "/>
<path style=" stroke:none;fill-rule:nonzero;fill:rgb(100%,100%,100%);fill-opacity:1;" d="M 9.324219 2.441406 L 10.125 2.441406 L 9.476562 2.917969 Z M 9.324219 2.441406 "/>
<path style=" stroke:none;fill-rule:nonzero;fill:rgb(100%,100%,100%);fill-opacity:1;" d="M 9.601562 2.535156 L 9.847656 3.304688 L 9.199219 2.828125 Z M 9.601562 2.535156 "/>
<path style=" stroke:none;fill-rule:nonzero;fill:rgb(100%,100%,100%);fill-opacity:1;" d="M 12.71875 2.828125 L 12.070312 3.304688 L 12.316406 2.535156 Z M 12.71875 2.828125 "/>
<path style=" stroke:none;fill-rule:nonzero;fill:rgb(100%,100%,100%);fill-opacity:1;" d="M 12.441406 2.917969 L 11.792969 2.441406 L 12.59375 2.441406 Z M 12.441406 2.917969 "/>
<path style=" stroke:none;fill-rule:nonzero;fill:rgb(100%,100%,100%);fill-opacity:1;" d="M 12.269531 2.679688 L 12.515625 1.910156 L 12.765625 2.679688 Z M 12.269531 2.679688 "/>
<path style=" stroke:none;fill-rule:nonzero;fill:rgb(100%,100%,100%);fill-opacity:1;" d="M 12.441406 2.441406 L 13.242188 2.441406 L 12.59375 2.917969 Z M 12.441406 2.441406 "/>
<path style=" stroke:none;fill-rule:nonzero;fill:rgb(100%,100%,100%);fill-opacity:1;" d="M 12.71875 2.535156 L 12.964844 3.304688 L 12.316406 2.828125 Z M 12.71875 2.535156 "/>
<path style=" stroke:none;fill-rule:nonzero;fill:rgb(100%,100%,100%);fill-opacity:1;" d="M 15.832031 2.828125 L 15.1875 3.304688 L 15.433594 2.535156 Z M 15.832031 2.828125 "/>
<path style=" stroke:none;fill-rule:nonzero;fill:rgb(100%,100%,100%);fill-opacity:1;" d="M 15.558594 2.917969 L 14.910156 2.441406 L 15.710938 2.441406 Z M 15.558594 2.917969 "/>
<path style=" stroke:none;fill-rule:nonzero;fill:rgb(100%,100%,100%);fill-opacity:1;" d="M 15.386719 2.679688 L 15.632812 1.910156 L 15.882812 2.679688 Z M 15.386719 2.679688 "/>
<path style=" stroke:none;fill-rule:nonzero;fill:rgb(100%,100%,100%);fill-opacity:1;" d="M 15.558594 2.441406 L 16.359375 2.441406 L 15.710938 2.917969 Z M 15.558594 2.441406 "/>
<path style=" stroke:none;fill-rule:nonzero;fill:rgb(100%,100%,100%);fill-opacity:1;" d="M 15.832031 2.535156 L 16.082031 3.304688 L 15.433594 2.828125 Z M 15.832031 2.535156 "/>
<path style=" stroke:none;fill-rule:nonzero;fill:rgb(100%,100%,100%);fill-opacity:1;" d="M 1.808594 4.179688 L 1.160156 4.652344 L 1.40625 3.882812 Z M 1.808594 4.179688 "/>
<path style=" stroke:none;fill-rule:nonzero;fill:rgb(100%,100%,100%);fill-opacity:1;" d="M 1.53125 4.269531 L 0.882812 3.792969 L 1.683594 3.792969 Z M 1.53125 4.269531 "/>
<path style=" stroke:none;fill-rule:nonzero;fill:rgb(100%,100%,100%);fill-opacity:1;" d="M 1.359375 4.03125 L 1.609375 3.261719 L 1.855469 4.03125 Z M 1.359375 4.03125 "/>
<path style=" stroke:none;fill-rule:nonzero;fill:rgb(100%,100%,100%);fill-opacity:1;" d="M 1.53125 3.792969 L 2.332031 3.792969 L 1.683594 4.269531 Z M 1.53125 3.792969 "/>
<path style=" stroke:none;fill-rule:nonzero;fill:rgb(100%,100%,100%);fill-opacity:1;" d="M 1.808594 3.882812 L 2.054688 4.652344 L 1.40625 4.179688 Z M 1.808594 3.882812 "/>
<path style=" stroke:none;fill-rule:nonzero;fill:rgb(100%,100%,100%);fill-opacity:1;" d="M 4.925781 4.179688 L 4.277344 4.652344 L 4.523438 3.882812 Z M 4.925781 4.179688 "/>
<path style=" stroke:none;fill-rule:nonzero;fill:rgb(100%,100%,100%);fill-opacity:1;" d="M 4.648438 4.269531 L 4 3.792969 L 4.800781 3.792969 Z M 4.648438 4.269531 "/>
<path style=" stroke:none;fill-rule:nonzero;fill:rgb(100%,100%,100%);fill-opacity:1;" d="M 4.476562 4.03125 L 4.726562 3.261719 L 4.972656 4.03125 Z M 4.476562 4.03125 "/>
<path style=" stroke:none;fill-rule:nonzero;fill:rgb(100%,100%,100%);fill-opacity:1;" d="M 4.648438 3.792969 L 5.449219 3.792969 L 4.800781 4.269531 Z M 4.648438 3.792969 "/>
<path style=" stroke:none;fill-rule:nonzero;fill:rgb(100%,100%,100%);fill-opacity:1;" d="M 4.925781 3.882812 L 5.171875 4.652344 L 4.523438 4.179688 Z M 4.925781 3.882812 "/>
<path style=" stroke:none;fill-rule:nonzero;fill:rgb(100%,100%,100%);fill-opacity:1;" d="M 8.042969 4.179688 L 7.394531 4.652344 L 7.640625 3.882812 Z M 8.042969 4.179688 "/>
<path style=" stroke:none;fill-rule:nonzero;fill:rgb(100%,100%,100%);fill-opacity:1;" d="M 7.765625 4.269531 L 7.117188 3.792969 L 7.917969 3.792969 Z M 7.765625 4.269531 "/>
<path style=" stroke:none;fill-rule:nonzero;fill:rgb(100%,100%,100%);fill-opacity:1;" d="M 7.59375 4.03125 L 7.839844 3.261719 L 8.089844 4.03125 Z M 7.59375 4.03125 "/>
<path style=" stroke:none;fill-rule:nonzero;fill:rgb(100%,100%,100%);fill-opacity:1;" d="M 7.765625 3.792969 L 8.566406 3.792969 L 7.917969 4.269531 Z M 7.765625 3.792969 "/>
<path style=" stroke:none;fill-rule:nonzero;fill:rgb(100%,100%,100%);fill-opacity:1;" d="M 8.042969 3.882812 L 8.289062 4.652344 L 7.640625 4.179688 Z M 8.042969 3.882812 "/>
<path style=" stroke:none;fill-rule:nonzero;fill:rgb(100%,100%,100%);fill-opacity:1;" d="M 11.160156 4.179688 L 10.511719 4.652344 L 10.757812 3.882812 Z M 11.160156 4.179688 "/>
<path style=" stroke:none;fill-rule:nonzero;fill:rgb(100%,100%,100%);fill-opacity:1;" d="M 10.882812 4.269531 L 10.234375 3.792969 L 11.035156 3.792969 Z M 10.882812 4.269531 "/>
<path style=" stroke:none;fill-rule:nonzero;fill:rgb(100%,100%,100%);fill-opacity:1;" d="M 10.710938 4.03125 L 10.957031 3.261719 L 11.207031 4.03125 Z M 10.710938 4.03125 "/>
<path style=" stroke:none;fill-rule:nonzero;fill:rgb(100%,100%,100%);fill-opacity:1;" d="M 10.882812 3.792969 L 11.683594 3.792969 L 11.035156 4.269531 Z M 10.882812 3.792969 "/>
<path style=" stroke:none;fill-rule:nonzero;fill:rgb(100%,100%,100%);fill-opacity:1;" d="M 11.160156 3.882812 L 11.40625 4.652344 L 10.757812 4.179688 Z M 11.160156 3.882812 "/>
<path style=" stroke:none;fill-rule:nonzero;fill:rgb(100%,100%,100%);fill-opacity:1;" d="M 14.277344 4.179688 L 13.628906 4.652344 L 13.875 3.882812 Z M 14.277344 4.179688 "/>
<path style=" stroke:none;fill-rule:nonzero;fill:rgb(100%,100%,100%);fill-opacity:1;" d="M 14 4.269531 L 13.351562 3.792969 L 14.152344 3.792969 Z M 14 4.269531 "/>
<path style=" stroke:none;fill-rule:nonzero;fill:rgb(100%,100%,100%);fill-opacity:1;" d="M 13.828125 4.03125 L 14.074219 3.261719 L 14.324219 4.03125 Z M 13.828125 4.03125 "/>
<path style=" stroke:none;fill-rule:nonzero;fill:rgb(100%,100%,100%);fill-opacity:1;" d="M 14 3.792969 L 14.800781 3.792969 L 14.152344 4.269531 Z M 14 3.792969 "/>
<path style=" stroke:none;fill-rule:nonzero;fill:rgb(100%,100%,100%);fill-opacity:1;" d="M 14.277344 3.882812 L 14.523438 4.652344 L 13.875 4.179688 Z M 14.277344 3.882812 "/>
<path style=" stroke:none;fill-rule:nonzero;fill:rgb(100%,100%,100%);fill-opacity:1;" d="M 17.390625 4.179688 L 16.746094 4.652344 L 16.992188 3.882812 Z M 17.390625 4.179688 "/>
<path style=" stroke:none;fill-rule:nonzero;fill:rgb(100%,100%,100%);fill-opacity:1;" d="M 17.117188 4.269531 L 16.46875 3.792969 L 17.269531 3.792969 Z M 17.117188 4.269531 "/>
<path style=" stroke:none;fill-rule:nonzero;fill:rgb(100%,100%,100%);fill-opacity:1;" d="M 16.945312 4.03125 L 17.191406 3.261719 L 17.441406 4.03125 Z M 16.945312 4.03125 "/>
<path style=" stroke:none;fill-rule:nonzero;fill:rgb(100%,100%,100%);fill-opacity:1;" d="M 17.117188 3.792969 L 17.917969 3.792969 L 17.269531 4.269531 Z M 17.117188 3.792969 "/>
<path style=" stroke:none;fill-rule:nonzero;fill:rgb(100%,100%,100%);fill-opacity:1;" d="M 17.390625 3.882812 L 17.640625 4.652344 L 16.992188 4.179688 Z M 17.390625 3.882812 "/>
<path style=" stroke:none;fill-rule:nonzero;fill:rgb(100%,100%,100%);fill-opacity:1;" d="M 3.367188 5.527344 L 2.71875 6.003906 L 2.964844 5.234375 Z M 3.367188 5.527344 "/>
<path style=" stroke:none;fill-rule:nonzero;fill:rgb(100%,100%,100%);fill-opacity:1;" d="M 3.089844 5.617188 L 2.441406 5.144531 L 3.242188 5.144531 Z M 3.089844 5.617188 "/>
<path style=" stroke:none;fill-rule:nonzero;fill:rgb(100%,100%,100%);fill-opacity:1;" d="M 2.917969 5.378906 L 3.167969 4.609375 L 3.414062 5.378906 Z M 2.917969 5.378906 "/>
<path style=" stroke:none;fill-rule:nonzero;fill:rgb(100%,100%,100%);fill-opacity:1;" d="M 3.089844 5.144531 L 3.890625 5.144531 L 3.242188 5.617188 Z M 3.089844 5.144531 "/>
<path style=" stroke:none;fill-rule:nonzero;fill:rgb(100%,100%,100%);fill-opacity:1;" d="M 3.367188 5.234375 L 3.613281 6.003906 L 2.964844 5.527344 Z M 3.367188 5.234375 "/>
<path style=" stroke:none;fill-rule:nonzero;fill:rgb(100%,100%,100%);fill-opacity:1;" d="M 6.484375 5.527344 L 5.835938 6.003906 L 6.082031 5.234375 Z M 6.484375 5.527344 "/>
<path style=" stroke:none;fill-rule:nonzero;fill:rgb(100%,100%,100%);fill-opacity:1;" d="M 6.207031 5.617188 L 5.558594 5.144531 L 6.359375 5.144531 Z M 6.207031 5.617188 "/>
<path style=" stroke:none;fill-rule:nonzero;fill:rgb(100%,100%,100%);fill-opacity:1;" d="M 6.035156 5.378906 L 6.28125 4.609375 L 6.53125 5.378906 Z M 6.035156 5.378906 "/>
<path style=" stroke:none;fill-rule:nonzero;fill:rgb(100%,100%,100%);fill-opacity:1;" d="M 6.207031 5.144531 L 7.007812 5.144531 L 6.359375 5.617188 Z M 6.207031 5.144531 "/>
<path style=" stroke:none;fill-rule:nonzero;fill:rgb(100%,100%,100%);fill-opacity:1;" d="M 6.484375 5.234375 L 6.730469 6.003906 L 6.082031 5.527344 Z M 6.484375 5.234375 "/>
<path style=" stroke:none;fill-rule:nonzero;fill:rgb(100%,100%,100%);fill-opacity:1;" d="M 9.601562 5.527344 L 8.953125 6.003906 L 9.199219 5.234375 Z M 9.601562 5.527344 "/>
<path style=" stroke:none;fill-rule:nonzero;fill:rgb(100%,100%,100%);fill-opacity:1;" d="M 9.324219 5.617188 L 8.675781 5.144531 L 9.476562 5.144531 Z M 9.324219 5.617188 "/>
<path style=" stroke:none;fill-rule:nonzero;fill:rgb(100%,100%,100%);fill-opacity:1;" d="M 9.152344 5.378906 L 9.398438 4.609375 L 9.648438 5.378906 Z M 9.152344 5.378906 "/>
<path style=" stroke:none;fill-rule:nonzero;fill:rgb(100%,100%,100%);fill-opacity:1;" d="M 9.324219 5.144531 L 10.125 5.144531 L 9.476562 5.617188 Z M 9.324219 5.144531 "/>
<path style=" stroke:none;fill-rule:nonzero;fill:rgb(100%,100%,100%);fill-opacity:1;" d="M 9.601562 5.234375 L 9.847656 6.003906 L 9.199219 5.527344 Z M 9.601562 5.234375 "/>
<path style=" stroke:none;fill-rule:nonzero;fill:rgb(100%,100%,100%);fill-opacity:1;" d="M 12.71875 5.527344 L 12.070312 6.003906 L 12.316406 5.234375 Z M 12.71875 5.527344 "/>
<path style=" stroke:none;fill-rule:nonzero;fill:rgb(100%,100%,100%);fill-opacity:1;" d="M 12.441406 5.617188 L 11.792969 5.144531 L 12.59375 5.144531 Z M 12.441406 5.617188 "/>
<path style=" stroke:none;fill-rule:nonzero;fill:rgb(100%,100%,100%);fill-opacity:1;" d="M 12.269531 5.378906 L 12.515625 4.609375 L 12.765625 5.378906 Z M 12.269531 5.378906 "/>
<path style=" stroke:none;fill-rule:nonzero;fill:rgb(100%,100%,100%);fill-opacity:1;" d="M 12.441406 5.144531 L 13.242188 5.144531 L 12.59375 5.617188 Z M 12.441406 5.144531 "/>
<path style=" stroke:none;fill-rule:nonzero;fill:rgb(100%,100%,100%);fill-opacity:1;" d="M 12.71875 5.234375 L 12.964844 6.003906 L 12.316406 5.527344 Z M 12.71875 5.234375 "/>
<path style=" stroke:none;fill-rule:nonzero;fill:rgb(100%,100%,100%);fill-opacity:1;" d="M 15.832031 5.527344 L 15.1875 6.003906 L 15.433594 5.234375 Z M 15.832031 5.527344 "/>
<path style=" stroke:none;fill-rule:nonzero;fill:rgb(100%,100%,100%);fill-opacity:1;" d="M 15.558594 5.617188 L 14.910156 5.144531 L 15.710938 5.144531 Z M 15.558594 5.617188 "/>
<path style=" stroke:none;fill-rule:nonzero;fill:rgb(100%,100%,100%);fill-opacity:1;" d="M 15.386719 5.378906 L 15.632812 4.609375 L 15.882812 5.378906 Z M 15.386719 5.378906 "/>
<path style=" stroke:none;fill-rule:nonzero;fill:rgb(100%,100%,100%);fill-opacity:1;" d="M 15.558594 5.144531 L 16.359375 5.144531 L 15.710938 5.617188 Z M 15.558594 5.144531 "/>
<path style=" stroke:none;fill-rule:nonzero;fill:rgb(100%,100%,100%);fill-opacity:1;" d="M 15.832031 5.234375 L 16.082031 6.003906 L 15.433594 5.527344 Z M 15.832031 5.234375 "/>
<path style=" stroke:none;fill-rule:nonzero;fill:rgb(100%,100%,100%);fill-opacity:1;" d="M 1.808594 6.878906 L 1.160156 7.355469 L 1.40625 6.582031 Z M 1.808594 6.878906 "/>
<path style=" stroke:none;fill-rule:nonzero;fill:rgb(100%,100%,100%);fill-opacity:1;" d="M 1.53125 6.96875 L 0.882812 6.492188 L 1.683594 6.492188 Z M 1.53125 6.96875 "/>
<path style=" stroke:none;fill-rule:nonzero;fill:rgb(100%,100%,100%);fill-opacity:1;" d="M 1.359375 6.730469 L 1.609375 5.960938 L 1.855469 6.730469 Z M 1.359375 6.730469 "/>
<path style=" stroke:none;fill-rule:nonzero;fill:rgb(100%,100%,100%);fill-opacity:1;" d="M 1.53125 6.492188 L 2.332031 6.492188 L 1.683594 6.96875 Z M 1.53125 6.492188 "/>
<path style=" stroke:none;fill-rule:nonzero;fill:rgb(100%,100%,100%);fill-opacity:1;" d="M 1.808594 6.582031 L 2.054688 7.355469 L 1.40625 6.878906 Z M 1.808594 6.582031 "/>
<path style=" stroke:none;fill-rule:nonzero;fill:rgb(100%,100%,100%);fill-opacity:1;" d="M 4.925781 6.878906 L 4.277344 7.355469 L 4.523438 6.582031 Z M 4.925781 6.878906 "/>
<path style=" stroke:none;fill-rule:nonzero;fill:rgb(100%,100%,100%);fill-opacity:1;" d="M 4.648438 6.96875 L 4 6.492188 L 4.800781 6.492188 Z M 4.648438 6.96875 "/>
<path style=" stroke:none;fill-rule:nonzero;fill:rgb(100%,100%,100%);fill-opacity:1;" d="M 4.476562 6.730469 L 4.726562 5.960938 L 4.972656 6.730469 Z M 4.476562 6.730469 "/>
<path style=" stroke:none;fill-rule:nonzero;fill:rgb(100%,100%,100%);fill-opacity:1;" d="M 4.648438 6.492188 L 5.449219 6.492188 L 4.800781 6.96875 Z M 4.648438 6.492188 "/>
<path style=" stroke:none;fill-rule:nonzero;fill:rgb(100%,100%,100%);fill-opacity:1;" d="M 4.925781 6.582031 L 5.171875 7.355469 L 4.523438 6.878906 Z M 4.925781 6.582031 "/>
<path style=" stroke:none;fill-rule:nonzero;fill:rgb(100%,100%,100%);fill-opacity:1;" d="M 8.042969 6.878906 L 7.394531 7.355469 L 7.640625 6.582031 Z M 8.042969 6.878906 "/>
<path style=" stroke:none;fill-rule:nonzero;fill:rgb(100%,100%,100%);fill-opacity:1;" d="M 7.765625 6.96875 L 7.117188 6.492188 L 7.917969 6.492188 Z M 7.765625 6.96875 "/>
<path style=" stroke:none;fill-rule:nonzero;fill:rgb(100%,100%,100%);fill-opacity:1;" d="M 7.59375 6.730469 L 7.839844 5.960938 L 8.089844 6.730469 Z M 7.59375 6.730469 "/>
<path style=" stroke:none;fill-rule:nonzero;fill:rgb(100%,100%,100%);fill-opacity:1;" d="M 7.765625 6.492188 L 8.566406 6.492188 L 7.917969 6.96875 Z M 7.765625 6.492188 "/>
<path style=" stroke:none;fill-rule:nonzero;fill:rgb(100%,100%,100%);fill-opacity:1;" d="M 8.042969 6.582031 L 8.289062 7.355469 L 7.640625 6.878906 Z M 8.042969 6.582031 "/>
<path style=" stroke:none;fill-rule:nonzero;fill:rgb(100%,100%,100%);fill-opacity:1;" d="M 11.160156 6.878906 L 10.511719 7.355469 L 10.757812 6.582031 Z M 11.160156 6.878906 "/>
<path style=" stroke:none;fill-rule:nonzero;fill:rgb(100%,100%,100%);fill-opacity:1;" d="M 10.882812 6.96875 L 10.234375 6.492188 L 11.035156 6.492188 Z M 10.882812 6.96875 "/>
<path style=" stroke:none;fill-rule:nonzero;fill:rgb(100%,100%,100%);fill-opacity:1;" d="M 10.710938 6.730469 L 10.957031 5.960938 L 11.207031 6.730469 Z M 10.710938 6.730469 "/>
<path style=" stroke:none;fill-rule:nonzero;fill:rgb(100%,100%,100%);fill-opacity:1;" d="M 10.882812 6.492188 L 11.683594 6.492188 L 11.035156 6.96875 Z M 10.882812 6.492188 "/>
<path style=" stroke:none;fill-rule:nonzero;fill:rgb(100%,100%,100%);fill-opacity:1;" d="M 11.160156 6.582031 L 11.40625 7.355469 L 10.757812 6.878906 Z M 11.160156 6.582031 "/>
<path style=" stroke:none;fill-rule:nonzero;fill:rgb(100%,100%,100%);fill-opacity:1;" d="M 14.277344 6.878906 L 13.628906 7.355469 L 13.875 6.582031 Z M 14.277344 6.878906 "/>
<path style=" stroke:none;fill-rule:nonzero;fill:rgb(100%,100%,100%);fill-opacity:1;" d="M 14 6.96875 L 13.351562 6.492188 L 14.152344 6.492188 Z M 14 6.96875 "/>
<path style=" stroke:none;fill-rule:nonzero;fill:rgb(100%,100%,100%);fill-opacity:1;" d="M 13.828125 6.730469 L 14.074219 5.960938 L 14.324219 6.730469 Z M 13.828125 6.730469 "/>
<path style=" stroke:none;fill-rule:nonzero;fill:rgb(100%,100%,100%);fill-opacity:1;" d="M 14 6.492188 L 14.800781 6.492188 L 14.152344 6.96875 Z M 14 6.492188 "/>
<path style=" stroke:none;fill-rule:nonzero;fill:rgb(100%,100%,100%);fill-opacity:1;" d="M 14.277344 6.582031 L 14.523438 7.355469 L 13.875 6.878906 Z M 14.277344 6.582031 "/>
<path style=" stroke:none;fill-rule:nonzero;fill:rgb(100%,100%,100%);fill-opacity:1;" d="M 17.390625 6.878906 L 16.746094 7.355469 L 16.992188 6.582031 Z M 17.390625 6.878906 "/>
<path style=" stroke:none;fill-rule:nonzero;fill:rgb(100%,100%,100%);fill-opacity:1;" d="M 17.117188 6.96875 L 16.46875 6.492188 L 17.269531 6.492188 Z M 17.117188 6.96875 "/>
<path style=" stroke:none;fill-rule:nonzero;fill:rgb(100%,100%,100%);fill-opacity:1;" d="M 16.945312 6.730469 L 17.191406 5.960938 L 17.441406 6.730469 Z M 16.945312 6.730469 "/>
<path style=" stroke:none;fill-rule:nonzero;fill:rgb(100%,100%,100%);fill-opacity:1;" d="M 17.117188 6.492188 L 17.917969 6.492188 L 17.269531 6.96875 Z M 17.117188 6.492188 "/>
<path style=" stroke:none;fill-rule:nonzero;fill:rgb(100%,100%,100%);fill-opacity:1;" d="M 17.390625 6.582031 L 17.640625 7.355469 L 16.992188 6.878906 Z M 17.390625 6.582031 "/>
<path style=" stroke:none;fill-rule:nonzero;fill:rgb(100%,100%,100%);fill-opacity:1;" d="M 3.367188 8.226562 L 2.71875 8.703125 L 2.964844 7.933594 Z M 3.367188 8.226562 "/>
<path style=" stroke:none;fill-rule:nonzero;fill:rgb(100%,100%,100%);fill-opacity:1;" d="M 3.089844 8.320312 L 2.441406 7.84375 L 3.242188 7.84375 Z M 3.089844 8.320312 "/>
<path style=" stroke:none;fill-rule:nonzero;fill:rgb(100%,100%,100%);fill-opacity:1;" d="M 2.917969 8.082031 L 3.167969 7.3125 L 3.414062 8.082031 Z M 2.917969 8.082031 "/>
<path style=" stroke:none;fill-rule:nonzero;fill:rgb(100%,100%,100%);fill-opacity:1;" d="M 3.089844 7.84375 L 3.890625 7.84375 L 3.242188 8.320312 Z M 3.089844 7.84375 "/>
<path style=" stroke:none;fill-rule:nonzero;fill:rgb(100%,100%,100%);fill-opacity:1;" d="M 3.367188 7.933594 L 3.613281 8.703125 L 2.964844 8.226562 Z M 3.367188 7.933594 "/>
<path style=" stroke:none;fill-rule:nonzero;fill:rgb(100%,100%,100%);fill-opacity:1;" d="M 6.484375 8.226562 L 5.835938 8.703125 L 6.082031 7.933594 Z M 6.484375 8.226562 "/>
<path style=" stroke:none;fill-rule:nonzero;fill:rgb(100%,100%,100%);fill-opacity:1;" d="M 6.207031 8.320312 L 5.558594 7.84375 L 6.359375 7.84375 Z M 6.207031 8.320312 "/>
<path style=" stroke:none;fill-rule:nonzero;fill:rgb(100%,100%,100%);fill-opacity:1;" d="M 6.035156 8.082031 L 6.28125 7.3125 L 6.53125 8.082031 Z M 6.035156 8.082031 "/>
<path style=" stroke:none;fill-rule:nonzero;fill:rgb(100%,100%,100%);fill-opacity:1;" d="M 6.207031 7.84375 L 7.007812 7.84375 L 6.359375 8.320312 Z M 6.207031 7.84375 "/>
<path style=" stroke:none;fill-rule:nonzero;fill:rgb(100%,100%,100%);fill-opacity:1;" d="M 6.484375 7.933594 L 6.730469 8.703125 L 6.082031 8.226562 Z M 6.484375 7.933594 "/>
<path style=" stroke:none;fill-rule:nonzero;fill:rgb(100%,100%,100%);fill-opacity:1;" d="M 9.601562 8.226562 L 8.953125 8.703125 L 9.199219 7.933594 Z M 9.601562 8.226562 "/>
<path style=" stroke:none;fill-rule:nonzero;fill:rgb(100%,100%,100%);fill-opacity:1;" d="M 9.324219 8.320312 L 8.675781 7.84375 L 9.476562 7.84375 Z M 9.324219 8.320312 "/>
<path style=" stroke:none;fill-rule:nonzero;fill:rgb(100%,100%,100%);fill-opacity:1;" d="M 9.152344 8.082031 L 9.398438 7.3125 L 9.648438 8.082031 Z M 9.152344 8.082031 "/>
<path style=" stroke:none;fill-rule:nonzero;fill:rgb(100%,100%,100%);fill-opacity:1;" d="M 9.324219 7.84375 L 10.125 7.84375 L 9.476562 8.320312 Z M 9.324219 7.84375 "/>
<path style=" stroke:none;fill-rule:nonzero;fill:rgb(100%,100%,100%);fill-opacity:1;" d="M 9.601562 7.933594 L 9.847656 8.703125 L 9.199219 8.226562 Z M 9.601562 7.933594 "/>
<path style=" stroke:none;fill-rule:nonzero;fill:rgb(100%,100%,100%);fill-opacity:1;" d="M 12.71875 8.226562 L 12.070312 8.703125 L 12.316406 7.933594 Z M 12.71875 8.226562 "/>
<path style=" stroke:none;fill-rule:nonzero;fill:rgb(100%,100%,100%);fill-opacity:1;" d="M 12.441406 8.320312 L 11.792969 7.84375 L 12.59375 7.84375 Z M 12.441406 8.320312 "/>
<path style=" stroke:none;fill-rule:nonzero;fill:rgb(100%,100%,100%);fill-opacity:1;" d="M 12.269531 8.082031 L 12.515625 7.3125 L 12.765625 8.082031 Z M 12.269531 8.082031 "/>
<path style=" stroke:none;fill-rule:nonzero;fill:rgb(100%,100%,100%);fill-opacity:1;" d="M 12.441406 7.84375 L 13.242188 7.84375 L 12.59375 8.320312 Z M 12.441406 7.84375 "/>
<path style=" stroke:none;fill-rule:nonzero;fill:rgb(100%,100%,100%);fill-opacity:1;" d="M 12.71875 7.933594 L 12.964844 8.703125 L 12.316406 8.226562 Z M 12.71875 7.933594 "/>
<path style=" stroke:none;fill-rule:nonzero;fill:rgb(100%,100%,100%);fill-opacity:1;" d="M 15.832031 8.226562 L 15.1875 8.703125 L 15.433594 7.933594 Z M 15.832031 8.226562 "/>
<path style=" stroke:none;fill-rule:nonzero;fill:rgb(100%,100%,100%);fill-opacity:1;" d="M 15.558594 8.320312 L 14.910156 7.84375 L 15.710938 7.84375 Z M 15.558594 8.320312 "/>
<path style=" stroke:none;fill-rule:nonzero;fill:rgb(100%,100%,100%);fill-opacity:1;" d="M 15.386719 8.082031 L 15.632812 7.3125 L 15.882812 8.082031 Z M 15.386719 8.082031 "/>
<path style=" stroke:none;fill-rule:nonzero;fill:rgb(100%,100%,100%);fill-opacity:1;" d="M 15.558594 7.84375 L 16.359375 7.84375 L 15.710938 8.320312 Z M 15.558594 7.84375 "/>
<path style=" stroke:none;fill-rule:nonzero;fill:rgb(100%,100%,100%);fill-opacity:1;" d="M 15.832031 7.933594 L 16.082031 8.703125 L 15.433594 8.226562 Z M 15.832031 7.933594 "/>
<path style=" stroke:none;fill-rule:nonzero;fill:rgb(100%,100%,100%);fill-opacity:1;" d="M 1.808594 9.578125 L 1.160156 10.054688 L 1.40625 9.285156 Z M 1.808594 9.578125 "/>
<path style=" stroke:none;fill-rule:nonzero;fill:rgb(100%,100%,100%);fill-opacity:1;" d="M 1.53125 9.667969 L 0.882812 9.191406 L 1.683594 9.191406 Z M 1.53125 9.667969 "/>
<path style=" stroke:none;fill-rule:nonzero;fill:rgb(100%,100%,100%);fill-opacity:1;" d="M 1.359375 9.429688 L 1.609375 8.660156 L 1.855469 9.429688 Z M 1.359375 9.429688 "/>
<path style=" stroke:none;fill-rule:nonzero;fill:rgb(100%,100%,100%);fill-opacity:1;" d="M 1.53125 9.191406 L 2.332031 9.191406 L 1.683594 9.667969 Z M 1.53125 9.191406 "/>
<path style=" stroke:none;fill-rule:nonzero;fill:rgb(100%,100%,100%);fill-opacity:1;" d="M 1.808594 9.285156 L 2.054688 10.054688 L 1.40625 9.578125 Z M 1.808594 9.285156 "/>
<path style=" stroke:none;fill-rule:nonzero;fill:rgb(100%,100%,100%);fill-opacity:1;" d="M 4.925781 9.578125 L 4.277344 10.054688 L 4.523438 9.285156 Z M 4.925781 9.578125 "/>
<path style=" stroke:none;fill-rule:nonzero;fill:rgb(100%,100%,100%);fill-opacity:1;" d="M 4.648438 9.667969 L 4 9.191406 L 4.800781 9.191406 Z M 4.648438 9.667969 "/>
<path style=" stroke:none;fill-rule:nonzero;fill:rgb(100%,100%,100%);fill-opacity:1;" d="M 4.476562 9.429688 L 4.726562 8.660156 L 4.972656 9.429688 Z M 4.476562 9.429688 "/>
<path style=" stroke:none;fill-rule:nonzero;fill:rgb(100%,100%,100%);fill-opacity:1;" d="M 4.648438 9.191406 L 5.449219 9.191406 L 4.800781 9.667969 Z M 4.648438 9.191406 "/>
<path style=" stroke:none;fill-rule:nonzero;fill:rgb(100%,100%,100%);fill-opacity:1;" d="M 4.925781 9.285156 L 5.171875 10.054688 L 4.523438 9.578125 Z M 4.925781 9.285156 "/>
<path style=" stroke:none;fill-rule:nonzero;fill:rgb(100%,100%,100%);fill-opacity:1;" d="M 8.042969 9.578125 L 7.394531 10.054688 L 7.640625 9.285156 Z M 8.042969 9.578125 "/>
<path style=" stroke:none;fill-rule:nonzero;fill:rgb(100%,100%,100%);fill-opacity:1;" d="M 7.765625 9.667969 L 7.117188 9.191406 L 7.917969 9.191406 Z M 7.765625 9.667969 "/>
<path style=" stroke:none;fill-rule:nonzero;fill:rgb(100%,100%,100%);fill-opacity:1;" d="M 7.59375 9.429688 L 7.839844 8.660156 L 8.089844 9.429688 Z M 7.59375 9.429688 "/>
<path style=" stroke:none;fill-rule:nonzero;fill:rgb(100%,100%,100%);fill-opacity:1;" d="M 7.765625 9.191406 L 8.566406 9.191406 L 7.917969 9.667969 Z M 7.765625 9.191406 "/>
<path style=" stroke:none;fill-rule:nonzero;fill:rgb(100%,100%,100%);fill-opacity:1;" d="M 8.042969 9.285156 L 8.289062 10.054688 L 7.640625 9.578125 Z M 8.042969 9.285156 "/>
<path style=" stroke:none;fill-rule:nonzero;fill:rgb(100%,100%,100%);fill-opacity:1;" d="M 11.160156 9.578125 L 10.511719 10.054688 L 10.757812 9.285156 Z M 11.160156 9.578125 "/>
<path style=" stroke:none;fill-rule:nonzero;fill:rgb(100%,100%,100%);fill-opacity:1;" d="M 10.882812 9.667969 L 10.234375 9.191406 L 11.035156 9.191406 Z M 10.882812 9.667969 "/>
<path style=" stroke:none;fill-rule:nonzero;fill:rgb(100%,100%,100%);fill-opacity:1;" d="M 10.710938 9.429688 L 10.957031 8.660156 L 11.207031 9.429688 Z M 10.710938 9.429688 "/>
<path style=" stroke:none;fill-rule:nonzero;fill:rgb(100%,100%,100%);fill-opacity:1;" d="M 10.882812 9.191406 L 11.683594 9.191406 L 11.035156 9.667969 Z M 10.882812 9.191406 "/>
<path style=" stroke:none;fill-rule:nonzero;fill:rgb(100%,100%,100%);fill-opacity:1;" d="M 11.160156 9.285156 L 11.40625 10.054688 L 10.757812 9.578125 Z M 11.160156 9.285156 "/>
<path style=" stroke:none;fill-rule:nonzero;fill:rgb(100%,100%,100%);fill-opacity:1;" d="M 14.277344 9.578125 L 13.628906 10.054688 L 13.875 9.285156 Z M 14.277344 9.578125 "/>
<path style=" stroke:none;fill-rule:nonzero;fill:rgb(100%,100%,100%);fill-opacity:1;" d="M 14 9.667969 L 13.351562 9.191406 L 14.152344 9.191406 Z M 14 9.667969 "/>
<path style=" stroke:none;fill-rule:nonzero;fill:rgb(100%,100%,100%);fill-opacity:1;" d="M 13.828125 9.429688 L 14.074219 8.660156 L 14.324219 9.429688 Z M 13.828125 9.429688 "/>
<path style=" stroke:none;fill-rule:nonzero;fill:rgb(100%,100%,100%);fill-opacity:1;" d="M 14 9.191406 L 14.800781 9.191406 L 14.152344 9.667969 Z M 14 9.191406 "/>
<path style=" stroke:none;fill-rule:nonzero;fill:rgb(100%,100%,100%);fill-opacity:1;" d="M 14.277344 9.285156 L 14.523438 10.054688 L 13.875 9.578125 Z M 14.277344 9.285156 "/>
<path style=" stroke:none;fill-rule:nonzero;fill:rgb(100%,100%,100%);fill-opacity:1;" d="M 17.390625 9.578125 L 16.746094 10.054688 L 16.992188 9.285156 Z M 17.390625 9.578125 "/>
<path style=" stroke:none;fill-rule:nonzero;fill:rgb(100%,100%,100%);fill-opacity:1;" d="M 17.117188 9.667969 L 16.46875 9.191406 L 17.269531 9.191406 Z M 17.117188 9.667969 "/>
<path style=" stroke:none;fill-rule:nonzero;fill:rgb(100%,100%,100%);fill-opacity:1;" d="M 16.945312 9.429688 L 17.191406 8.660156 L 17.441406 9.429688 Z M 16.945312 9.429688 "/>
<path style=" stroke:none;fill-rule:nonzero;fill:rgb(100%,100%,100%);fill-opacity:1;" d="M 17.117188 9.191406 L 17.917969 9.191406 L 17.269531 9.667969 Z M 17.117188 9.191406 "/>
<path style=" stroke:none;fill-rule:nonzero;fill:rgb(100%,100%,100%);fill-opacity:1;" d="M 17.390625 9.285156 L 17.640625 10.054688 L 16.992188 9.578125 Z M 17.390625 9.285156 "/>
<path style=" stroke:none;fill-rule:nonzero;fill:rgb(100%,100%,100%);fill-opacity:1;" d="M 3.367188 10.929688 L 2.71875 11.402344 L 2.964844 10.632812 Z M 3.367188 10.929688 "/>
<path style=" stroke:none;fill-rule:nonzero;fill:rgb(100%,100%,100%);fill-opacity:1;" d="M 3.089844 11.019531 L 2.441406 10.542969 L 3.242188 10.542969 Z M 3.089844 11.019531 "/>
<path style=" stroke:none;fill-rule:nonzero;fill:rgb(100%,100%,100%);fill-opacity:1;" d="M 2.917969 10.78125 L 3.167969 10.011719 L 3.414062 10.78125 Z M 2.917969 10.78125 "/>
<path style=" stroke:none;fill-rule:nonzero;fill:rgb(100%,100%,100%);fill-opacity:1;" d="M 3.089844 10.542969 L 3.890625 10.542969 L 3.242188 11.019531 Z M 3.089844 10.542969 "/>
<path style=" stroke:none;fill-rule:nonzero;fill:rgb(100%,100%,100%);fill-opacity:1;" d="M 3.367188 10.632812 L 3.613281 11.402344 L 2.964844 10.929688 Z M 3.367188 10.632812 "/>
<path style=" stroke:none;fill-rule:nonzero;fill:rgb(100%,100%,100%);fill-opacity:1;" d="M 6.484375 10.929688 L 5.835938 11.402344 L 6.082031 10.632812 Z M 6.484375 10.929688 "/>
<path style=" stroke:none;fill-rule:nonzero;fill:rgb(100%,100%,100%);fill-opacity:1;" d="M 6.207031 11.019531 L 5.558594 10.542969 L 6.359375 10.542969 Z M 6.207031 11.019531 "/>
<path style=" stroke:none;fill-rule:nonzero;fill:rgb(100%,100%,100%);fill-opacity:1;" d="M 6.035156 10.78125 L 6.28125 10.011719 L 6.53125 10.78125 Z M 6.035156 10.78125 "/>
<path style=" stroke:none;fill-rule:nonzero;fill:rgb(100%,100%,100%);fill-opacity:1;" d="M 6.207031 10.542969 L 7.007812 10.542969 L 6.359375 11.019531 Z M 6.207031 10.542969 "/>
<path style=" stroke:none;fill-rule:nonzero;fill:rgb(100%,100%,100%);fill-opacity:1;" d="M 6.484375 10.632812 L 6.730469 11.402344 L 6.082031 10.929688 Z M 6.484375 10.632812 "/>
<path style=" stroke:none;fill-rule:nonzero;fill:rgb(100%,100%,100%);fill-opacity:1;" d="M 9.601562 10.929688 L 8.953125 11.402344 L 9.199219 10.632812 Z M 9.601562 10.929688 "/>
<path style=" stroke:none;fill-rule:nonzero;fill:rgb(100%,100%,100%);fill-opacity:1;" d="M 9.324219 11.019531 L 8.675781 10.542969 L 9.476562 10.542969 Z M 9.324219 11.019531 "/>
<path style=" stroke:none;fill-rule:nonzero;fill:rgb(100%,100%,100%);fill-opacity:1;" d="M 9.152344 10.78125 L 9.398438 10.011719 L 9.648438 10.78125 Z M 9.152344 10.78125 "/>
<path style=" stroke:none;fill-rule:nonzero;fill:rgb(100%,100%,100%);fill-opacity:1;" d="M 9.324219 10.542969 L 10.125 10.542969 L 9.476562 11.019531 Z M 9.324219 10.542969 "/>
<path style=" stroke:none;fill-rule:nonzero;fill:rgb(100%,100%,100%);fill-opacity:1;" d="M 9.601562 10.632812 L 9.847656 11.402344 L 9.199219 10.929688 Z M 9.601562 10.632812 "/>
<path style=" stroke:none;fill-rule:nonzero;fill:rgb(100%,100%,100%);fill-opacity:1;" d="M 12.71875 10.929688 L 12.070312 11.402344 L 12.316406 10.632812 Z M 12.71875 10.929688 "/>
<path style=" stroke:none;fill-rule:nonzero;fill:rgb(100%,100%,100%);fill-opacity:1;" d="M 12.441406 11.019531 L 11.792969 10.542969 L 12.59375 10.542969 Z M 12.441406 11.019531 "/>
<path style=" stroke:none;fill-rule:nonzero;fill:rgb(100%,100%,100%);fill-opacity:1;" d="M 12.269531 10.78125 L 12.515625 10.011719 L 12.765625 10.78125 Z M 12.269531 10.78125 "/>
<path style=" stroke:none;fill-rule:nonzero;fill:rgb(100%,100%,100%);fill-opacity:1;" d="M 12.441406 10.542969 L 13.242188 10.542969 L 12.59375 11.019531 Z M 12.441406 10.542969 "/>
<path style=" stroke:none;fill-rule:nonzero;fill:rgb(100%,100%,100%);fill-opacity:1;" d="M 12.71875 10.632812 L 12.964844 11.402344 L 12.316406 10.929688 Z M 12.71875 10.632812 "/>
<path style=" stroke:none;fill-rule:nonzero;fill:rgb(100%,100%,100%);fill-opacity:1;" d="M 15.832031 10.929688 L 15.1875 11.402344 L 15.433594 10.632812 Z M 15.832031 10.929688 "/>
<path style=" stroke:none;fill-rule:nonzero;fill:rgb(100%,100%,100%);fill-opacity:1;" d="M 15.558594 11.019531 L 14.910156 10.542969 L 15.710938 10.542969 Z M 15.558594 11.019531 "/>
<path style=" stroke:none;fill-rule:nonzero;fill:rgb(100%,100%,100%);fill-opacity:1;" d="M 15.386719 10.78125 L 15.632812 10.011719 L 15.882812 10.78125 Z M 15.386719 10.78125 "/>
<path style=" stroke:none;fill-rule:nonzero;fill:rgb(100%,100%,100%);fill-opacity:1;" d="M 15.558594 10.542969 L 16.359375 10.542969 L 15.710938 11.019531 Z M 15.558594 10.542969 "/>
<path style=" stroke:none;fill-rule:nonzero;fill:rgb(100%,100%,100%);fill-opacity:1;" d="M 15.832031 10.632812 L 16.082031 11.402344 L 15.433594 10.929688 Z M 15.832031 10.632812 "/>
<path style=" stroke:none;fill-rule:nonzero;fill:rgb(100%,100%,100%);fill-opacity:1;" d="M 1.808594 12.277344 L 1.160156 12.753906 L 1.40625 11.984375 Z M 1.808594 12.277344 "/>
<path style=" stroke:none;fill-rule:nonzero;fill:rgb(100%,100%,100%);fill-opacity:1;" d="M 1.53125 12.367188 L 0.882812 11.894531 L 1.683594 11.894531 Z M 1.53125 12.367188 "/>
<path style=" stroke:none;fill-rule:nonzero;fill:rgb(100%,100%,100%);fill-opacity:1;" d="M 1.359375 12.128906 L 1.609375 11.359375 L 1.855469 12.128906 Z M 1.359375 12.128906 "/>
<path style=" stroke:none;fill-rule:nonzero;fill:rgb(100%,100%,100%);fill-opacity:1;" d="M 1.53125 11.894531 L 2.332031 11.894531 L 1.683594 12.367188 Z M 1.53125 11.894531 "/>
<path style=" stroke:none;fill-rule:nonzero;fill:rgb(100%,100%,100%);fill-opacity:1;" d="M 1.808594 11.984375 L 2.054688 12.753906 L 1.40625 12.277344 Z M 1.808594 11.984375 "/>
<path style=" stroke:none;fill-rule:nonzero;fill:rgb(100%,100%,100%);fill-opacity:1;" d="M 4.925781 12.277344 L 4.277344 12.753906 L 4.523438 11.984375 Z M 4.925781 12.277344 "/>
<path style=" stroke:none;fill-rule:nonzero;fill:rgb(100%,100%,100%);fill-opacity:1;" d="M 4.648438 12.367188 L 4 11.894531 L 4.800781 11.894531 Z M 4.648438 12.367188 "/>
<path style=" stroke:none;fill-rule:nonzero;fill:rgb(100%,100%,100%);fill-opacity:1;" d="M 4.476562 12.128906 L 4.726562 11.359375 L 4.972656 12.128906 Z M 4.476562 12.128906 "/>
<path style=" stroke:none;fill-rule:nonzero;fill:rgb(100%,100%,100%);fill-opacity:1;" d="M 4.648438 11.894531 L 5.449219 11.894531 L 4.800781 12.367188 Z M 4.648438 11.894531 "/>
<path style=" stroke:none;fill-rule:nonzero;fill:rgb(100%,100%,100%);fill-opacity:1;" d="M 4.925781 11.984375 L 5.171875 12.753906 L 4.523438 12.277344 Z M 4.925781 11.984375 "/>
<path style=" stroke:none;fill-rule:nonzero;fill:rgb(100%,100%,100%);fill-opacity:1;" d="M 8.042969 12.277344 L 7.394531 12.753906 L 7.640625 11.984375 Z M 8.042969 12.277344 "/>
<path style=" stroke:none;fill-rule:nonzero;fill:rgb(100%,100%,100%);fill-opacity:1;" d="M 7.765625 12.367188 L 7.117188 11.894531 L 7.917969 11.894531 Z M 7.765625 12.367188 "/>
<path style=" stroke:none;fill-rule:nonzero;fill:rgb(100%,100%,100%);fill-opacity:1;" d="M 7.59375 12.128906 L 7.839844 11.359375 L 8.089844 12.128906 Z M 7.59375 12.128906 "/>
<path style=" stroke:none;fill-rule:nonzero;fill:rgb(100%,100%,100%);fill-opacity:1;" d="M 7.765625 11.894531 L 8.566406 11.894531 L 7.917969 12.367188 Z M 7.765625 11.894531 "/>
<path style=" stroke:none;fill-rule:nonzero;fill:rgb(100%,100%,100%);fill-opacity:1;" d="M 8.042969 11.984375 L 8.289062 12.753906 L 7.640625 12.277344 Z M 8.042969 11.984375 "/>
<path style=" stroke:none;fill-rule:nonzero;fill:rgb(100%,100%,100%);fill-opacity:1;" d="M 11.160156 12.277344 L 10.511719 12.753906 L 10.757812 11.984375 Z M 11.160156 12.277344 "/>
<path style=" stroke:none;fill-rule:nonzero;fill:rgb(100%,100%,100%);fill-opacity:1;" d="M 10.882812 12.367188 L 10.234375 11.894531 L 11.035156 11.894531 Z M 10.882812 12.367188 "/>
<path style=" stroke:none;fill-rule:nonzero;fill:rgb(100%,100%,100%);fill-opacity:1;" d="M 10.710938 12.128906 L 10.957031 11.359375 L 11.207031 12.128906 Z M 10.710938 12.128906 "/>
<path style=" stroke:none;fill-rule:nonzero;fill:rgb(100%,100%,100%);fill-opacity:1;" d="M 10.882812 11.894531 L 11.683594 11.894531 L 11.035156 12.367188 Z M 10.882812 11.894531 "/>
<path style=" stroke:none;fill-rule:nonzero;fill:rgb(100%,100%,100%);fill-opacity:1;" d="M 11.160156 11.984375 L 11.40625 12.753906 L 10.757812 12.277344 Z M 11.160156 11.984375 "/>
<path style=" stroke:none;fill-rule:nonzero;fill:rgb(100%,100%,100%);fill-opacity:1;" d="M 14.277344 12.277344 L 13.628906 12.753906 L 13.875 11.984375 Z M 14.277344 12.277344 "/>
<path style=" stroke:none;fill-rule:nonzero;fill:rgb(100%,100%,100%);fill-opacity:1;" d="M 14 12.367188 L 13.351562 11.894531 L 14.152344 11.894531 Z M 14 12.367188 "/>
<path style=" stroke:none;fill-rule:nonzero;fill:rgb(100%,100%,100%);fill-opacity:1;" d="M 13.828125 12.128906 L 14.074219 11.359375 L 14.324219 12.128906 Z M 13.828125 12.128906 "/>
<path style=" stroke:none;fill-rule:nonzero;fill:rgb(100%,100%,100%);fill-opacity:1;" d="M 14 11.894531 L 14.800781 11.894531 L 14.152344 12.367188 Z M 14 11.894531 "/>
<path style=" stroke:none;fill-rule:nonzero;fill:rgb(100%,100%,100%);fill-opacity:1;" d="M 14.277344 11.984375 L 14.523438 12.753906 L 13.875 12.277344 Z M 14.277344 11.984375 "/>
<path style=" stroke:none;fill-rule:nonzero;fill:rgb(100%,100%,100%);fill-opacity:1;" d="M 17.390625 12.277344 L 16.746094 12.753906 L 16.992188 11.984375 Z M 17.390625 12.277344 "/>
<path style=" stroke:none;fill-rule:nonzero;fill:rgb(100%,100%,100%);fill-opacity:1;" d="M 17.117188 12.367188 L 16.46875 11.894531 L 17.269531 11.894531 Z M 17.117188 12.367188 "/>
<path style=" stroke:none;fill-rule:nonzero;fill:rgb(100%,100%,100%);fill-opacity:1;" d="M 16.945312 12.128906 L 17.191406 11.359375 L 17.441406 12.128906 Z M 16.945312 12.128906 "/>
<path style=" stroke:none;fill-rule:nonzero;fill:rgb(100%,100%,100%);fill-opacity:1;" d="M 17.117188 11.894531 L 17.917969 11.894531 L 17.269531 12.367188 Z M 17.117188 11.894531 "/>
<path style=" stroke:none;fill-rule:nonzero;fill:rgb(100%,100%,100%);fill-opacity:1;" d="M 17.390625 11.984375 L 17.640625 12.753906 L 16.992188 12.277344 Z M 17.390625 11.984375 "/>
</g>
</svg>
